<svg width="100" height="100" viewBox="0 0 100 100" fill="none" xmlns="http://www.w3.org/2000/svg">
<rect width="100" height="100" fill="#121212"/>
<g style="mix-blend-mode:color-dodge" filter="url(#filter0_f_513_13312)">
<path d="M61.5904 63.129C62.2683 59.901 59.089 54.1139 54.4891 50.203C49.8893 46.2921 45.6108 45.7385 44.9329 48.9664C44.255 52.1944 47.4343 57.9816 52.0341 61.8925C56.634 65.8034 60.9124 66.357 61.5904 63.129Z" fill="url(#paint0_linear_513_13312)"/>
</g>
<g style="mix-blend-mode:color-dodge" filter="url(#filter1_f_513_13312)">
<path d="M62.5796 62.6766C63.4226 58.2105 60.236 50.9292 55.462 46.4134C50.688 41.8976 46.1345 41.8573 45.2915 46.3234C44.4484 50.7895 47.6351 58.0707 52.409 62.5866C57.183 67.1024 61.7365 67.1427 62.5796 62.6766Z" fill="url(#paint1_linear_513_13312)"/>
</g>
<g style="mix-blend-mode:color-dodge" filter="url(#filter2_f_513_13312)">
<path d="M66.7656 58.2378C67.5799 55.139 63.1962 49.782 56.9742 46.2726C50.7522 42.7633 45.0481 42.4305 44.2338 45.5293C43.4194 48.6282 47.8032 53.9852 54.0251 57.4945C60.2471 61.0039 65.9512 61.3367 66.7656 58.2378Z" fill="url(#paint2_linear_513_13312)"/>
</g>
<defs>
<filter id="filter0_f_513_13312" x="38.9427" y="40.9665" width="28.6381" height="30.1624" filterUnits="userSpaceOnUse" color-interpolation-filters="sRGB">
<feFlood flood-opacity="0" result="BackgroundImageFix"/>
<feBlend mode="normal" in="SourceGraphic" in2="BackgroundImageFix" result="shape"/>
<feGaussianBlur stdDeviation="2.94956" result="effect1_foregroundBlur_513_13312"/>
</filter>
<filter id="filter1_f_513_13312" x="29.3294" y="27.1731" width="49.2124" height="54.6538" filterUnits="userSpaceOnUse" color-interpolation-filters="sRGB">
<feFlood flood-opacity="0" result="BackgroundImageFix"/>
<feBlend mode="normal" in="SourceGraphic" in2="BackgroundImageFix" result="shape"/>
<feGaussianBlur stdDeviation="7.91345" result="effect1_foregroundBlur_513_13312"/>
</filter>
<filter id="filter2_f_513_13312" x="32.3385" y="31.6083" width="46.323" height="40.5506" filterUnits="userSpaceOnUse" color-interpolation-filters="sRGB">
<feFlood flood-opacity="0" result="BackgroundImageFix"/>
<feBlend mode="normal" in="SourceGraphic" in2="BackgroundImageFix" result="shape"/>
<feGaussianBlur stdDeviation="5.89912" result="effect1_foregroundBlur_513_13312"/>
</filter>
<linearGradient id="paint0_linear_513_13312" x1="49.7189" y1="52.9915" x2="50.4241" y2="58.6278" gradientUnits="userSpaceOnUse">
<stop stop-color="white"/>
<stop offset="1" stop-color="white" stop-opacity="0"/>
</linearGradient>
<linearGradient id="paint1_linear_513_13312" x1="45.3298" y1="45.5174" x2="65.9478" y2="55.8069" gradientUnits="userSpaceOnUse">
<stop stop-color="#E9C600"/>
<stop offset="0.989603" stop-color="#E9C600" stop-opacity="0"/>
</linearGradient>
<linearGradient id="paint2_linear_513_13312" x1="59.8734" y1="30.388" x2="50.9109" y2="31.0824" gradientUnits="userSpaceOnUse">
<stop stop-color="#FF5001" stop-opacity="0"/>
<stop offset="1" stop-color="#FF5001"/>
<stop offset="1" stop-color="#FF5001"/>
</linearGradient>
</defs>
</svg>
