<svg width="33" height="40" viewBox="0 0 33 40" fill="none" xmlns="http://www.w3.org/2000/svg">
<g clip-path="url(#clip0_988_5606)">
<path fill-rule="evenodd" clip-rule="evenodd" d="M0.549833 5.34999H0.0605469V5.35713C0.0607606 5.3919 0.0612368 5.42666 0.0619754 5.46142C0.0714773 5.96316 0.0905284 6.46468 0.119118 6.9657C0.176261 7.9857 0.29269 9.43571 0.523404 11.1643C0.984833 14.6186 1.90912 19.1993 3.76412 23.68C5.77983 28.5486 8.76412 32.5464 11.2384 35.3221C12.237 36.4453 13.2902 37.5187 14.3941 38.5386C14.7908 38.9032 15.1964 39.2581 15.6105 39.6028C15.6405 39.6286 15.6641 39.6471 15.6798 39.66L15.6884 39.6671L15.6984 39.6743L15.7034 39.6786L15.7048 39.68L16.0098 39.3L15.7055 39.6807L15.9913 39.9071L16.2913 39.6986L16.0098 39.3C16.2905 39.6986 16.2913 39.6978 16.2913 39.6978L16.2934 39.6964L16.2984 39.6928L16.3041 39.6886L16.3155 39.6814C16.4183 39.6082 16.5193 39.5324 16.6184 39.4543C16.8255 39.295 17.1234 39.0571 17.4955 38.7379C18.5459 37.8285 19.5405 36.8567 20.4741 35.8278C22.8627 33.2128 25.8727 29.2193 28.372 23.6943C29.9327 20.2443 30.8413 15.6507 31.3613 11.9514C31.622 10.0943 31.7863 8.45142 31.8863 7.27285C31.9386 6.65132 31.9826 6.02912 32.0184 5.40642L32.0191 5.38142V5.37428L32.0198 5.37285L31.5313 5.34856L32.0198 5.37213L32.0334 5.09142L31.7963 4.93999L31.532 5.34856L31.7963 4.93999L31.7941 4.93856L31.7891 4.9357C31.7621 4.91864 31.7349 4.90173 31.7077 4.88499C31.3225 4.65217 30.9312 4.42971 30.5341 4.21785C29.4365 3.63424 28.3082 3.11038 27.1541 2.64856C24.3163 1.5107 20.402 0.36499 16.1327 0.36499C11.8634 0.36499 7.9034 1.5107 5.02126 2.64856C3.84754 3.11075 2.69882 3.63408 1.57983 4.21642C1.17417 4.42821 0.774035 4.65042 0.379833 4.88285C0.352126 4.89937 0.324507 4.91604 0.296975 4.93285L0.291975 4.93642L0.290547 4.93713L0.549833 5.34928V5.34999ZM1.04269 5.62285C1.04269 5.66213 1.04412 5.7057 1.04555 5.75356C1.05269 6.01999 1.06698 6.41213 1.09555 6.91213C1.17603 8.2914 1.3085 9.66714 1.49269 11.0364C1.94769 14.4414 2.85698 18.9328 4.6684 23.3107C6.6284 28.0464 9.54055 31.9521 11.9698 34.6771C12.9472 35.7764 13.9779 36.8269 15.0584 37.825C15.4513 38.1864 15.767 38.4614 15.9841 38.6464C15.9984 38.6586 16.0127 38.67 16.0255 38.6821C16.2191 38.5321 16.502 38.3064 16.8563 38.0021C17.8769 37.1184 18.8434 36.1741 19.7505 35.1743C22.0813 32.6228 25.0291 28.7136 27.4805 23.2957C28.9813 19.9771 29.8755 15.4978 30.3927 11.8171C30.6505 9.98213 30.8134 8.35785 30.912 7.19213C30.9563 6.66592 30.9946 6.13922 31.027 5.61213C30.7131 5.4249 30.3944 5.24579 30.0713 5.07499C29.0052 4.50841 27.9093 3.99981 26.7884 3.55142C24.0198 2.4407 20.2341 1.33713 16.132 1.33713C12.0298 1.33713 8.19769 2.4407 5.38198 3.55213C4.24041 4.00171 3.12317 4.51074 2.03483 5.07713C1.6999 5.2517 1.36887 5.43365 1.04198 5.62285H1.04269ZM0.549833 5.34928L0.289833 4.93785L0.0612612 5.0807V5.34928H0.549833Z" fill="white"/>
<path d="M5.1936 22.8264C1.71003 12.8572 2.19931 7.75073 2.19931 7.75073C2.19931 7.75073 6.53788 9.87859 11.2422 16.6264C13.555 19.9429 16.07 25.805 16.07 25.805C16.07 25.805 18.4236 19.9007 20.775 16.6264C25.7515 9.69573 29.88 7.78145 29.88 7.78145C29.88 7.78145 30.1622 14.1943 26.825 22.8264C24.3807 29.1493 19.3086 34.8022 19.3086 34.8022L20.1029 28.4807C20.1029 28.4807 22.3365 25.1493 23.4029 22.8272C24.4722 20.4986 25.5415 16.6264 25.5415 16.6264C25.5415 16.6264 22.8529 18.1764 20.775 22.0979C19.5079 24.4879 18.9493 25.9179 18.0865 28.48C16.9279 31.9207 16.0086 37.5379 16.0086 37.5379C16.0086 37.5379 15.0893 31.9207 13.9307 28.4807C13.0679 25.9179 12.4322 24.5272 11.2422 22.0972C9.47074 18.48 6.53717 16.6257 6.53717 16.6257C6.53717 16.6257 7.6536 20.4957 8.73717 22.8264C9.8136 25.1443 12.0372 28.48 12.0372 28.48L12.8307 34.8022C12.8307 34.8022 7.17931 28.5129 5.19288 22.8272L5.1936 22.8264Z" fill="white"/>
<path d="M16.1321 2.12787C8.85991 1.97573 2.64062 6.1143 2.64062 6.1143C2.64062 6.1143 4.76563 6.38287 10.2049 13.1614C13.9178 17.7886 16.0706 22.7664 16.0706 22.7664C16.0706 22.7664 18.5363 17.7307 20.5921 14.8636C22.4228 12.3122 25.7871 8.72359 25.7871 8.72359C20.9056 6.07502 15.5821 5.38073 11.2435 9.08787C11.2435 9.08787 12.2549 9.97287 12.8321 10.6079C13.4021 11.235 14.2378 12.3707 14.2378 12.3707C14.2378 12.3707 16.6206 7.90287 20.2878 8.90645C22.2249 9.43573 16.9878 15.5779 16.0706 16.535C16.0706 16.535 14.8492 13.9514 12.9542 11.7636C11.1371 9.66359 8.0042 6.65645 8.0042 6.65645C8.0042 6.65645 11.3656 4.9543 16.3756 4.9543C22.1213 4.9543 26.7035 7.59859 26.7035 7.59859L29.5142 5.83573C29.5142 5.83573 23.4035 2.28002 16.1321 2.12859V2.12787Z" fill="white"/>
<path d="M16.0098 0C7.6384 0 0.0605469 4.68071 0.0605469 4.68071L0.121975 6.29286C0.121975 6.29286 8.00483 1.5 16.0098 1.46C24.0155 1.42 31.9598 6.29286 31.9598 6.29286L32.0205 5.10714C32.0205 5.10714 24.382 0 16.0098 0Z" fill="white"/>
</g>
<defs>
<clipPath id="clip0_988_5606">
<rect width="32.1429" height="40" fill="white"/>
</clipPath>
</defs>
</svg>
