<svg width="111" height="30" viewBox="0 0 111 30" fill="none" xmlns="http://www.w3.org/2000/svg">
<g clip-path="url(#clip0_988_5572)">
<path d="M25.8851 29.3324L17.0668 10.9468L13.8644 4.26978H12.7969V29.8891H17.0668V12.0594L25.6184 29.8891H29.8883L38.4281 11.7421V29.8891H38.9618V4.26978H37.8943L25.8851 29.3324Z" fill="white"/>
<path d="M44.6021 19.2434C44.4369 19.2515 44.2725 19.2612 44.1094 19.2737C43.1012 19.333 42.093 19.9853 42.1523 21.0528C42.2342 21.8104 42.487 22.5233 42.6887 23.2329L39.4961 29.8891H40.0299C40.0299 29.8891 40.7154 29.1882 41.6737 28.1912C41.9516 27.9026 42.1765 27.6763 42.4697 27.3475C42.6219 27.1768 42.7574 26.9905 42.8622 26.7872C43.3361 25.8678 43.2077 24.8248 42.9573 23.7854L45.0129 19.4997C46.1957 19.4375 47.4304 19.4632 48.5815 19.2832V29.8891H52.8514V4.26978H51.7838L44.6021 19.2434ZM41.7669 27.5169C41.2141 28.0922 40.882 28.4374 40.882 28.4374L40.571 28.7608L42.8697 23.968C43.0865 25.0729 42.9955 26.2043 41.7669 27.5169ZM42.7695 23.0644C42.6188 22.5118 42.465 21.9687 42.3822 21.4549C42.1449 20.3875 43.1012 19.6295 44.1094 19.5702C44.2258 19.5573 44.3434 19.5466 44.4614 19.5367L42.7695 23.0644ZM48.5815 18.97C47.4699 19.1943 46.294 19.1871 45.1459 19.2223L48.5815 12.0594V18.97Z" fill="white"/>
<path d="M6.39276 4.26988C7.57186 4.26988 8.5277 3.31403 8.5277 2.13495C8.5277 0.955849 7.57186 0 6.39276 0C5.21366 0 4.25781 0.955849 4.25781 2.13495C4.25781 3.31403 5.21366 4.26988 6.39276 4.26988Z" fill="white"/>
<path d="M4.25788 5.41259C3.03147 4.70332 1.51404 4.28937 0 4.271C2.30694 4.32971 4.25788 6.21853 4.25788 8.53969V29.8891H8.52778V12.8096C8.52778 9.64863 6.81091 6.88926 4.25788 5.41259Z" fill="white"/>
<path d="M63.1 28.8597L60.114 21.5358H59.2559L62.7238 29.8825H63.4761L66.9325 21.5358H66.0742L63.1 28.8597Z" fill="white"/>
<path d="M68.7663 23.7576H67.9668V29.8824H68.7663V23.7576Z" fill="white"/>
<path d="M68.7663 21.3007H67.9668V22.4763H68.7663V21.3007Z" fill="white"/>
<path d="M73.2332 23.7341C72.8412 23.7655 72.4709 23.9145 72.1222 24.1808C71.7734 24.4474 71.4933 24.7962 71.2817 25.2271V23.7812H70.5293V29.8825H71.3287V26.0735C71.4933 25.5798 71.7772 25.1918 72.181 24.9097C72.5845 24.6276 73.0528 24.4788 73.5858 24.463V23.7341C73.5466 23.7265 73.4976 23.7224 73.4389 23.7224C73.3801 23.7224 73.3114 23.7265 73.2332 23.7341Z" fill="white"/>
<path d="M77.0543 29.1479C76.8739 29.2224 76.6741 29.2595 76.4547 29.2595C76.2667 29.2595 76.1001 29.2044 75.9551 29.0942C75.81 28.984 75.7298 28.8184 75.7141 28.5981V24.4161H77.1249V23.7813H75.7141V21.7122H74.9148V23.7813H74.0684V24.4161H74.9148V28.8196C74.9148 29.0793 74.9735 29.2977 75.0911 29.4748C75.2086 29.6519 75.3674 29.7837 75.5672 29.8703C75.767 29.9568 75.9805 30.0001 76.2079 30.0001C76.4272 30.0001 76.6311 29.9766 76.8192 29.9296C77.0073 29.8825 77.1678 29.8278 77.3011 29.7651C77.4344 29.7024 77.5322 29.6592 77.5951 29.6357L77.3835 28.9891C77.3442 29.0206 77.2345 29.0734 77.0543 29.1479Z" fill="white"/>
<path d="M83.7668 28.9199V23.7811H82.9673V27.6225C82.8497 27.9578 82.677 28.2519 82.45 28.5052C82.2222 28.7588 81.9619 28.9537 81.6684 29.09C81.374 29.2265 81.0705 29.2946 80.757 29.2946C80.2868 29.2946 79.9321 29.123 79.6932 28.7795C79.454 28.4362 79.3346 27.9173 79.3346 27.2226V23.7811H78.5352V27.3648C78.5352 28.2314 78.6998 28.8874 79.0289 29.3325C79.3581 29.7776 79.844 30 80.4867 30C81.0195 30 81.5151 29.8673 81.974 29.6018C82.4322 29.3363 82.7946 28.9693 83.0613 28.5009L83.0849 29.3205C83.0922 29.4767 83.153 29.6092 83.2673 29.7185C83.3808 29.8278 83.5154 29.8901 83.6727 29.9059C83.7197 29.9059 83.7708 29.9039 83.8251 29.9C83.8803 29.8959 83.9549 29.8901 84.0489 29.8824V29.2475C83.9549 29.2399 83.8843 29.2105 83.8373 29.1598C83.7903 29.109 83.7668 29.0292 83.7668 28.9199Z" fill="white"/>
<path d="M90.3735 24.6283C90.0994 24.3361 89.7775 24.1062 89.4094 23.9386C89.0413 23.7711 88.6375 23.6871 88.1989 23.6871C87.7594 23.6871 87.354 23.7711 86.9819 23.9386C86.6097 24.1062 86.2862 24.3361 86.0121 24.6283C85.7381 24.9205 85.5265 25.2556 85.3773 25.6336C85.2281 26.0117 85.1543 26.4189 85.1543 26.8554C85.1543 27.2762 85.2281 27.6755 85.3773 28.0535C85.5265 28.4316 85.7356 28.7668 86.0065 29.0591C86.2765 29.3512 86.5975 29.5812 86.9705 29.7488C87.3427 29.9161 87.7481 30 88.1867 30C88.6335 30 89.0429 29.9161 89.4159 29.7488C89.7873 29.5812 90.1092 29.3512 90.3792 29.0591C90.65 28.7668 90.8592 28.4316 91.0084 28.0535C91.1575 27.6755 91.2321 27.2762 91.2321 26.8554C91.2321 26.4189 91.1575 26.0117 91.0084 25.6336C90.8592 25.2556 90.6475 24.9205 90.3735 24.6283ZM90.1148 28.075C89.9113 28.4525 89.6405 28.7501 89.304 28.9679C88.9667 29.1858 88.5946 29.2947 88.1867 29.2947C87.7797 29.2947 87.4075 29.1878 87.0702 28.9738C86.7329 28.7598 86.4646 28.4679 86.2651 28.0983C86.0648 27.7288 85.9651 27.3184 85.9651 26.8669C85.9651 26.4079 86.0673 25.9935 86.2708 25.6239C86.4743 25.2544 86.7427 24.9565 87.0759 24.7311C87.4092 24.5054 87.7797 24.3925 88.1867 24.3925C88.5946 24.3925 88.9667 24.5014 89.304 24.7192C89.6405 24.9371 89.9113 25.2329 90.1148 25.6065C90.3183 25.9801 90.4205 26.3925 90.4205 26.8436C90.4205 27.2872 90.3183 27.6977 90.1148 28.075Z" fill="white"/>
<path d="M95.8513 26.8399C95.5067 26.7114 95.1029 26.5848 94.6407 26.46C94.3196 26.3667 94.0488 26.2791 93.8299 26.1972C93.6102 26.1154 93.4456 26.0142 93.3361 25.8934C93.2259 25.7727 93.1715 25.6033 93.1715 25.3851C93.1715 25.1204 93.2437 24.9121 93.3888 24.7602C93.534 24.6084 93.7196 24.4992 93.9475 24.4331C94.1745 24.3669 94.4137 24.3337 94.6642 24.3337C95.0323 24.3337 95.368 24.3946 95.6696 24.5159C95.9713 24.6375 96.2315 24.8236 96.4513 25.0743L96.8388 24.5335C96.6118 24.2673 96.3175 24.0595 95.9575 23.9104C95.5967 23.7617 95.1815 23.6871 94.7113 23.6871C94.2799 23.6871 93.8899 23.7555 93.5413 23.8917C93.1926 24.0282 92.9186 24.227 92.7191 24.488C92.5188 24.7492 92.4191 25.0784 92.4191 25.4759C92.4191 25.7955 92.4913 26.0545 92.6364 26.2532C92.7815 26.4519 92.9964 26.6156 93.2826 26.7442C93.5688 26.8728 93.924 26.9956 94.3472 27.1125C94.7234 27.2061 95.0461 27.2936 95.3169 27.3755C95.5869 27.4575 95.7945 27.5626 95.9396 27.6912C96.0848 27.8197 96.1569 28.0049 96.1569 28.2464C96.1569 28.6039 96.0086 28.8778 95.711 29.068C95.4126 29.2584 95.0251 29.3535 94.5467 29.3535C94.1551 29.3535 93.7845 29.2811 93.4359 29.1359C93.0872 28.9911 92.7402 28.7579 92.3956 28.4365L92.0664 29.0008C92.3794 29.3378 92.7524 29.5886 93.1829 29.7531C93.6142 29.9177 94.0805 30 94.5823 30C95.2878 30 95.8553 29.8404 96.2867 29.521C96.7172 29.2018 96.9329 28.7578 96.9329 28.1891C96.9329 27.8232 96.8388 27.5388 96.6507 27.3364C96.4626 27.1341 96.1967 26.9685 95.8513 26.84V26.8399Z" fill="white"/>
<path d="M103.046 24.6283C102.771 24.3361 102.45 24.1062 102.082 23.9386C101.713 23.7711 101.309 23.6871 100.871 23.6871C100.432 23.6871 100.027 23.7711 99.6545 23.9386C99.2816 24.1062 98.9589 24.3361 98.684 24.6283C98.41 24.9205 98.1983 25.2556 98.05 25.6336C97.9008 26.0117 97.8262 26.4189 97.8262 26.8554C97.8262 27.2762 97.9008 27.6755 98.05 28.0535C98.1983 28.4316 98.4083 28.7668 98.6783 29.0591C98.9491 29.3512 99.2702 29.5812 99.6424 29.7488C100.015 29.9161 100.42 30 100.859 30C101.306 30 101.716 29.9161 102.088 29.7488C102.46 29.5812 102.781 29.3512 103.052 29.0591C103.322 28.7668 103.532 28.4316 103.681 28.0535C103.829 27.6755 103.904 27.2762 103.904 26.8554C103.904 26.4189 103.829 26.0117 103.681 25.6336C103.532 25.2556 103.32 24.9205 103.046 24.6283ZM102.788 28.075C102.583 28.4525 102.313 28.7501 101.976 28.9679C101.639 29.1858 101.266 29.2947 100.859 29.2947C100.452 29.2947 100.079 29.1878 99.7421 28.9738C99.4056 28.7598 99.1373 28.4679 98.937 28.0983C98.7375 27.7288 98.637 27.3184 98.637 26.8669C98.637 26.4079 98.7391 25.9935 98.9427 25.6239C99.147 25.2544 99.4154 24.9565 99.7486 24.7311C100.081 24.5054 100.452 24.3925 100.859 24.3925C101.266 24.3925 101.639 24.5014 101.976 24.7192C102.313 24.9371 102.583 25.2329 102.788 25.6065C102.991 25.9801 103.093 26.3925 103.093 26.8436C103.093 27.2872 102.991 27.6977 102.788 28.075Z" fill="white"/>
<path d="M109.323 27.3364C109.135 27.1341 108.869 26.9685 108.524 26.8399C108.179 26.7113 107.776 26.5848 107.313 26.46C106.992 26.3667 106.722 26.2791 106.502 26.1972C106.282 26.1154 106.117 26.0142 106.008 25.8934C105.899 25.7727 105.843 25.6033 105.843 25.3851C105.843 25.1204 105.916 24.9121 106.061 24.7602C106.206 24.6084 106.392 24.4992 106.619 24.4331C106.846 24.3669 107.086 24.3337 107.337 24.3337C107.705 24.3337 108.04 24.3946 108.342 24.5159C108.643 24.6375 108.904 24.8236 109.123 25.0743L109.512 24.5335C109.284 24.2673 108.99 24.0595 108.629 23.9104C108.269 23.7617 107.853 23.6871 107.383 23.6871C106.953 23.6871 106.563 23.7555 106.214 23.8917C105.865 24.0282 105.59 24.227 105.391 24.488C105.191 24.7492 105.091 25.0784 105.091 25.4759C105.091 25.7955 105.164 26.0545 105.308 26.2532C105.453 26.4519 105.669 26.6156 105.955 26.7442C106.242 26.8728 106.596 26.9956 107.019 27.1125C107.395 27.2061 107.719 27.2936 107.989 27.3755C108.26 27.4575 108.467 27.5626 108.612 27.6912C108.757 27.8197 108.83 28.0049 108.83 28.2464C108.83 28.6039 108.68 28.8778 108.383 29.068C108.085 29.2584 107.697 29.3535 107.219 29.3535C106.827 29.3535 106.456 29.2811 106.108 29.1359C105.759 28.9911 105.412 28.7579 105.067 28.4365L104.738 29.0008C105.052 29.3378 105.424 29.5886 105.856 29.7531C106.286 29.9177 106.752 30 107.254 30C107.96 30 108.528 29.8404 108.959 29.521C109.39 29.2018 109.606 28.7578 109.606 28.1891C109.606 27.8232 109.512 27.5388 109.323 27.3364Z" fill="white"/>
</g>
<defs>
<clipPath id="clip0_988_5572">
<rect width="110.27" height="30" fill="white"/>
</clipPath>
</defs>
</svg>
