<svg width="97" height="32" viewBox="0 0 97 32" fill="none" xmlns="http://www.w3.org/2000/svg">
<path d="M50.3716 3.46885H47.9727V25.3131H50.3716V19.5365L51.2555 18.1162L54.57 25.3131H57.2847L52.8653 16.4746L56.906 10.035H54.2861L51.2555 15.4328C50.9711 15.9375 50.7189 16.5375 50.4347 17.1375H50.3716V3.46885ZM67.3861 15.2115C67.3861 11.8027 66.0919 9.81404 63.0299 9.81404C61.5148 9.81404 60.1257 10.3506 59.4627 10.824L59.9997 12.5287C60.7257 12.0235 61.5779 11.7396 62.5247 11.7396C64.4189 11.7396 64.9555 13.1287 64.9555 15.1803V15.6542C61.5148 15.6855 58.4528 17.3583 58.4528 21.2094C58.4528 23.861 60.0309 25.5657 62.0513 25.5657C63.3773 25.5657 64.4508 24.8714 65.1132 23.7032H65.208L65.3659 25.3131H67.544C67.418 24.3349 67.3861 23.0089 67.3861 21.8412V15.2115ZM65.0184 20.4834C65.0184 20.7678 64.9867 21.0834 64.9237 21.3672C64.6399 22.8829 63.756 23.6719 62.6825 23.6719C61.8304 23.6719 60.8205 22.9771 60.8205 20.9568C60.8205 17.6422 63.756 17.3902 65.0184 17.3902V20.4834Z" fill="white"/>
<path d="M5.0513 0.632797L4.90286 0.781197C5.34766 2.1656 5.66277 3.4448 5.8487 4.61933C6.03359 5.7932 6.12682 6.94893 6.12682 8.086C6.12682 8.92653 6.09558 9.9156 6.03359 11.0521C5.97214 12.1896 5.86693 13.3823 5.71849 14.6307C5.57006 15.8792 5.36641 17.1271 5.10703 18.3755C4.84714 19.624 4.53203 20.7922 4.16119 21.8797C3.98829 21.8302 3.80286 21.7932 3.60495 21.7682L3.01173 21.6943C2.29506 21.6943 1.77578 21.8797 1.45443 22.2505C1.13307 22.6214 0.972656 23.0661 0.972656 23.5854C0.972656 24.1047 1.13932 24.599 1.47266 25.0687C1.80651 25.538 2.28255 25.7734 2.90026 25.7734C3.61745 25.7734 4.22266 25.526 4.71745 25.0318C5.21173 24.5375 5.59506 23.9687 5.86693 23.326C5.89141 23.3505 5.94089 23.363 6.01537 23.363C6.73203 23.6104 7.50443 23.8635 8.33255 24.1229C9.16067 24.3828 9.94558 24.5125 10.6872 24.5125C11.6263 24.5125 12.5227 24.2526 13.3758 23.7339C14.2284 23.2146 15.0008 22.263 15.693 20.8786C15.693 20.4828 15.5695 20.2854 15.3222 20.2854C15.0998 20.2854 14.9638 20.3719 14.9143 20.5448C14.3462 21.7313 13.6847 22.5536 12.9305 23.0109C12.1763 23.4682 11.3919 23.6969 10.5758 23.6969C9.93359 23.6969 9.25963 23.5917 8.55547 23.3818C7.85078 23.1714 7.16485 22.9427 6.49714 22.6953L6.23777 22.6214H6.20078C6.47266 21.9047 6.71381 21.1135 6.9237 20.2484C7.13359 19.3833 7.31901 18.5057 7.47995 17.6156C7.64088 16.726 7.77058 15.836 7.86953 14.9459C7.96797 14.0557 8.05443 13.2401 8.12839 12.4984C8.12839 12.4495 8.13515 12.3688 8.14714 12.2579C8.15963 12.1464 8.16588 12.0536 8.16588 11.9797L8.33255 10.0328C8.39453 9.3036 8.42526 8.56826 8.42526 7.82653C8.42526 7.03547 8.37578 6.24426 8.27734 5.45306C8.17786 4.66253 8.00495 3.93333 7.75807 3.2656C7.51067 2.5984 7.1711 2.02973 6.73829 1.55986C6.30599 1.09013 5.74348 0.781197 5.0513 0.632797ZM3.97578 22.6953L3.90182 22.6214V22.6953H3.97578ZM2.41849 24.5865C2.2211 24.5865 2.07214 24.4937 1.9737 24.3089C1.87474 24.1229 1.82526 23.9187 1.82526 23.6969C1.82526 23.2766 1.96119 22.9797 2.23307 22.8068C2.50495 22.6333 2.81381 22.5469 3.16015 22.5469C3.28359 22.5469 3.40703 22.5594 3.53099 22.5844C3.65443 22.6089 3.77786 22.6458 3.90182 22.6953C3.90182 22.7698 3.8461 22.912 3.73515 23.1219C3.62318 23.3323 3.49401 23.5484 3.34558 23.7708C3.19714 23.9932 3.04245 24.1849 2.88203 24.3458C2.7211 24.5063 2.56641 24.5865 2.41849 24.5865ZM19.2528 23.6969C18.6352 24.2406 18.0659 24.5125 17.5471 24.5125C16.979 24.5125 16.5519 24.1724 16.268 23.4927C15.9836 22.813 15.8414 21.9911 15.8414 21.0271C15.8414 19.9641 16.0268 18.8698 16.3976 17.7453C16.7686 16.6208 17.3372 15.7489 18.1034 15.1312C18.0784 15.2547 18.0659 15.3473 18.0659 15.4093V15.6875C18.0659 16.2063 18.1404 16.7317 18.2888 17.2631C18.4372 17.7948 18.6534 18.2891 18.9378 18.7464C19.2222 19.2036 19.568 19.6052 19.9758 19.9516C20.3836 20.2979 20.8471 20.5573 21.3664 20.7302C21.0946 21.2495 20.7795 21.775 20.4206 22.3063C20.0623 22.8375 19.6732 23.301 19.2528 23.6969ZM19.0304 14.7235C19.1539 14.3031 19.3706 13.9079 19.6795 13.5364C19.9883 13.1656 20.3899 12.9807 20.8847 12.9807C21.5023 12.9807 21.9164 13.2588 22.1263 13.8145C22.3367 14.3713 22.4419 15.0079 22.4419 15.7245C22.4419 16.4412 22.3617 17.1833 22.2008 17.9495C22.0399 18.7156 21.8607 19.3833 21.6632 19.9516C21.2185 19.8036 20.8284 19.587 20.4951 19.3026C20.1612 19.0182 19.8711 18.6849 19.6238 18.3016C19.3763 17.9183 19.191 17.5041 19.0675 17.0593C18.9435 16.614 18.882 16.1817 18.882 15.7615C18.882 15.3661 18.9315 15.0203 19.0304 14.7235ZM28.1523 15.9844C27.8555 16.4292 27.5034 16.8864 27.0956 17.3557C26.6872 17.8255 26.2482 18.2645 25.779 18.6724C25.3091 19.0802 24.8023 19.4141 24.2586 19.6734C23.7148 19.9333 23.1586 20.0625 22.5904 20.0625H22.5159C22.6888 19.5932 22.8498 18.9563 22.9982 18.1531C23.1462 17.35 23.22 16.5276 23.22 15.6875C23.22 15.2421 23.1831 14.8099 23.1091 14.3896C23.0352 13.9693 22.9118 13.5927 22.7383 13.2588C22.5654 12.9249 22.3304 12.6593 22.0341 12.4615C21.7372 12.2636 21.3664 12.1645 20.9216 12.1645C20.4274 12.1645 19.9632 12.3255 19.531 12.6469C19.0982 12.9683 18.7462 13.3885 18.4743 13.9079C17.7576 13.9817 17.1268 14.2041 16.5831 14.5749C16.0394 14.9459 15.5576 15.4156 15.1372 15.9844C14.618 16.7011 14.2284 17.5041 13.969 18.3943C13.7096 19.2844 13.5799 20.162 13.5799 21.0271C13.5799 22.5099 13.8826 23.6411 14.4883 24.4198C15.094 25.1984 15.8539 25.5875 16.7686 25.5875C17.6586 25.5875 18.6039 25.1922 19.6049 24.401C20.6066 23.6104 21.4654 22.4359 22.182 20.8786H22.5904C23.579 20.8786 24.5987 20.5016 25.6492 19.7474C26.6998 18.9937 27.781 17.838 28.8935 16.2807C28.8935 16.0333 28.8071 15.8792 28.6341 15.8172C28.4612 15.7557 28.3003 15.8109 28.1523 15.9844ZM40.5743 15.9844C40.4008 16.2807 40.1596 16.6579 39.8508 17.1151C39.5419 17.5724 39.1894 18.0172 38.794 18.45C38.3987 18.8823 37.9784 19.2531 37.5336 19.5625C37.0883 19.8714 36.6435 20.0255 36.1982 20.0255C35.729 20.0255 35.2836 19.8156 34.8632 19.3953C35.0367 19.0245 35.2341 18.5672 35.4571 18.0235C35.6795 17.4797 35.8899 16.9172 36.0872 16.3364C36.2852 15.7557 36.4519 15.1745 36.5877 14.5932C36.7238 14.0125 36.7919 13.4875 36.7919 13.0177C36.7919 12.4495 36.6867 12.0167 36.4768 11.7197C36.2664 11.4229 36.0008 11.2749 35.6795 11.2749C35.4076 11.2749 35.1232 11.3927 34.8263 11.6271C34.5299 11.862 34.2519 12.1896 33.9924 12.6099C33.7326 13.0303 33.5164 13.5489 33.3435 14.1672C33.17 14.7849 33.0836 15.4776 33.0836 16.2437C33.0836 16.8369 33.1456 17.4052 33.2695 17.9495C33.3929 18.4932 33.6154 19 33.9367 19.4698L33.1394 21.0453C32.8549 21.6016 32.5768 22.1089 32.305 22.5656C32.0336 23.0229 31.7612 23.4 31.4893 23.6969C31.2175 23.9932 30.9826 24.1417 30.7852 24.1417C30.5623 24.1417 30.3831 23.9005 30.2471 23.4187C30.1112 22.9365 30.043 22.1021 30.043 20.9156C30.043 20.1495 30.0743 19.3521 30.1361 18.524C30.1976 17.6959 30.2842 16.8803 30.3956 16.0771C30.5071 15.2735 30.6362 14.5005 30.7852 13.7593C30.9331 13.0177 31.0815 12.35 31.2299 11.7568C31.2795 11.6583 31.2424 11.6088 31.1186 11.6088H29.3014C29.2028 11.6088 29.1039 11.726 29.0049 11.9609C28.906 12.1959 28.8071 12.5172 28.7086 12.9249C28.6096 13.3328 28.5107 13.8027 28.4117 14.3339C28.3128 14.8656 28.2263 15.4156 28.1523 15.9844C28.0284 16.8245 27.9362 17.6651 27.8743 18.5057C27.8123 19.3464 27.7815 20.075 27.7815 20.6932C27.7815 21.1135 27.7998 21.6016 27.8367 22.1578C27.8743 22.7141 27.9664 23.2396 28.1154 23.7339C28.2632 24.2281 28.4856 24.6484 28.7826 24.9948C29.0795 25.3406 29.4872 25.5135 30.006 25.5135C30.4757 25.5135 30.9206 25.3531 31.341 25.0318C31.7612 24.7099 32.1571 24.2896 32.5279 23.7708C32.8987 23.2516 33.2508 22.6771 33.5847 22.0469C33.918 21.4161 34.2211 20.7922 34.493 20.1745C34.7648 20.4458 35.0429 20.625 35.3274 20.7115C35.6118 20.7984 35.8899 20.8417 36.1612 20.8417C36.6804 20.8417 37.1935 20.6932 37.7003 20.3964C38.2071 20.1 38.6894 19.7292 39.1466 19.2844C39.6039 18.8391 40.0243 18.3511 40.4071 17.8197C40.7904 17.288 41.118 16.7875 41.3894 16.3177C41.4143 16.2683 41.4268 16.1943 41.4268 16.0953C41.4268 15.9719 41.3836 15.8792 41.2971 15.8172C41.2107 15.7557 41.118 15.7245 41.019 15.7245C40.8456 15.7245 40.6976 15.8109 40.5743 15.9844ZM33.8997 16.0953C33.8997 15.6995 33.943 15.2672 34.0295 14.7973C34.1159 14.3276 34.2336 13.8891 34.3815 13.4812C34.5299 13.0735 34.7091 12.7271 34.9195 12.4427C35.1295 12.1588 35.3706 12.0167 35.6424 12.0167C35.7659 12.0167 35.8648 12.1088 35.9388 12.2948C36.0132 12.4797 36.0503 12.7208 36.0503 13.0177C36.0503 13.4131 35.9883 13.8645 35.8648 14.3713C35.741 14.8781 35.5867 15.3907 35.4013 15.9099C35.2159 16.4292 35.0304 16.9172 34.8451 17.3749C34.6596 17.8317 34.493 18.2213 34.3446 18.5427C34.1961 18.2213 34.0847 17.8505 34.0107 17.4303C33.9367 17.0099 33.8997 16.5651 33.8997 16.0953ZM44.0965 13.8703V13.9079C44.443 13.2896 44.7023 12.9807 44.8752 12.9807C44.9247 12.9807 44.9497 13.0547 44.9497 13.2031C44.9497 13.5245 44.8076 13.9693 44.5227 14.538C44.2388 15.1068 43.7503 15.6011 43.058 16.0213C43.2315 15.6011 43.3982 15.2303 43.5591 14.9088L44.0965 13.8703ZM48.1383 15.9844C47.8664 16.5276 47.4768 17.2631 46.97 18.1901C46.4637 19.1177 45.9132 20.0323 45.3205 20.9344C44.7268 21.8365 44.1336 22.6151 43.5404 23.2703C42.9471 23.9255 42.4404 24.2526 42.02 24.2526C41.7727 24.2526 41.606 24.1104 41.5195 23.8266C41.4331 23.5422 41.3894 23.1776 41.3894 22.7328C41.3894 22.3375 41.4268 21.8859 41.5014 21.3792C41.5752 20.8724 41.668 20.3594 41.7789 19.8406C41.8904 19.3214 42.0137 18.8271 42.1503 18.3573C42.2856 17.8875 42.4279 17.4797 42.5763 17.1339C43.1451 16.8864 43.6331 16.5896 44.0409 16.2437C44.4487 15.8979 44.7826 15.5328 45.0419 15.15C45.3019 14.7667 45.4935 14.3839 45.6169 14.0005C45.7404 13.6172 45.8023 13.2527 45.8023 12.9068C45.8023 12.412 45.6909 12.0104 45.4685 11.7011C45.2461 11.3927 44.9372 11.238 44.5414 11.238C44.2451 11.238 43.9232 11.3615 43.5774 11.6088C43.2315 11.8557 42.8789 12.1959 42.5205 12.6287C42.1623 13.0609 41.8164 13.5615 41.4826 14.1303C41.1487 14.6984 40.8456 15.3167 40.5743 15.9844C40.1784 16.9235 39.8571 17.8875 39.6096 18.8766C39.3628 19.8651 39.2268 20.7922 39.2019 21.6573C39.2019 22.0776 39.2331 22.4979 39.2945 22.9182C39.3565 23.338 39.4738 23.7151 39.6466 24.049C39.82 24.3828 40.0612 24.6609 40.37 24.8833C40.679 25.1057 41.0686 25.2167 41.5383 25.2167C42.0326 25.2167 42.5394 25.0437 43.058 24.6979C43.5774 24.3516 44.0841 23.9005 44.5789 23.3443C45.0732 22.788 45.5492 22.1641 46.0065 21.4719C46.4637 20.7797 46.8841 20.1063 47.2669 19.451C47.6497 18.7958 47.9836 18.1844 48.268 17.6156C48.5523 17.0469 48.7685 16.6021 48.917 16.2807C48.9909 16.1323 48.9976 16.0088 48.9356 15.9099C48.8737 15.8109 48.7935 15.7432 48.6945 15.7063C48.5956 15.6693 48.4904 15.6693 48.3795 15.7063C48.268 15.7432 48.1877 15.836 48.1383 15.9844Z" fill="white"/>
<path fill-rule="evenodd" clip-rule="evenodd" d="M45.4146 29.6324C45.723 29.7412 46.7167 29.9298 46.5709 29.9522C46.2209 29.8938 45.4861 29.8709 45.4146 29.6324ZM54.4651 30.7761C58.4646 30.16 62.5897 28.9558 66.9303 26.7417C62.6329 28.7532 58.5047 29.9714 54.4651 30.7761ZM44.4746 29.6475H44.4751C46.0527 29.0704 47.6318 30.2704 49.4943 30.4339C51.2386 30.586 51.9637 30.9589 53.8943 30.0782C56.8085 28.748 59.4746 28.8647 62.3293 27.7037C64.3501 26.8813 66.1735 26.0626 68.2094 26.1511C64.3214 29.3808 59.8938 30.449 56.5621 31.0813C58.7454 30.6485 61.6803 31.6673 63.7277 30.597C68.637 28.0303 70.9569 22.3527 76.2209 20.3709C75.3355 23.5209 72.1063 26.1683 69.0031 28.8433C70.9334 28.0178 72.8547 27.2313 74.785 26.4058C74.8323 25.7667 74.7741 25.1063 75.3902 24.5891C75.4698 25.0022 75.7194 24.622 75.8574 24.7615C75.897 25.2261 75.4829 25.5938 75.2329 25.9964C75.6667 25.7292 76.1413 25.4704 76.2121 25.1256C76.4813 25.447 75.9771 25.6042 75.9813 25.8688C76.8751 25.2834 77.6793 25.1141 78.599 24.4115C78.6641 23.7766 78.3189 23.0542 79.0657 22.5657C79.2214 22.9725 78.6834 23.0688 78.9141 23.6136C79.0881 23.5001 78.9329 22.9548 79.1694 23.0917C79.087 23.1943 79.0689 23.3105 79.1646 23.4516C79.3042 23.1214 79.4293 22.7876 79.8683 22.5209C80.2146 22.5943 79.8798 22.8886 79.8875 23.1016C80.0298 23.0006 80.1599 22.9522 80.2766 22.9683C80.5318 23.197 80.047 23.6324 80.3511 23.6329C80.6017 23.4704 80.8527 23.3079 81.1037 23.1459C81.273 22.1006 80.7974 20.9183 81.9741 20.0891C82.2079 20.5959 81.5585 20.9131 81.6251 21.3839C81.7646 21.2933 81.9042 21.2032 82.0433 21.1126C82.3094 21.386 81.8413 21.5016 81.9793 21.7475C82.4667 21.3813 82.4443 21.6449 82.5011 22.0032C82.7214 21.7589 82.8454 21.9678 83.0282 21.9001C83.0271 21.1308 83.0755 20.373 83.9131 19.7829C83.8079 20.3298 83.8965 20.0277 84.3209 20.2308C84.0547 20.7037 83.0433 21.3975 83.4167 21.7673C84.1787 21.4251 84.1433 20.9131 84.3465 20.4527C84.3881 20.8418 84.3891 21.161 84.6662 21.3136C84.7662 20.5183 84.6074 19.6678 85.7189 19.0891C86.0553 19.4787 85.2698 19.1787 85.4089 19.5272C85.7766 19.2209 85.9798 19.685 86.0979 19.6746C86.0689 19.2121 86.3897 18.824 86.9985 18.4979C87.097 18.8792 86.7011 19.1548 86.7079 19.5167C86.997 19.2907 87.2334 19.3084 87.4855 19.2506C87.7318 19.4959 87.2667 19.5881 87.3678 19.8022C87.8402 19.3407 87.8803 19.8949 87.9194 19.9204C88.2813 19.1589 87.9303 18.1861 88.8886 17.7495C88.737 17.7824 88.5189 18.1272 88.4157 17.9365C88.6209 17.8736 88.8985 17.4771 89.0553 17.6413C89.0959 17.9053 88.6589 18.1105 89.1053 18.0845C89.0323 18.1881 88.973 18.2959 88.9621 18.4137C88.623 18.7209 88.9413 18.1012 88.6027 18.4089C88.3845 18.6261 88.2047 18.8522 88.3714 19.1522C89.1391 18.4933 89.2829 17.7266 90.2807 16.9662C90.4537 17.3652 89.9829 18.0053 90.2365 18.1818C90.5313 18.0777 90.3891 17.8787 90.6839 17.7736C90.8651 17.8777 90.6151 18.2151 90.9006 18.1079C90.9542 17.6151 91.3631 17.198 91.6927 16.7646C91.8886 16.7501 92.0303 16.985 92.2741 16.7444C92.3746 16.8861 92.4235 17.0168 92.4063 17.1329C92.623 16.9069 92.7667 17.0209 92.9631 16.8917C93.2105 17.1845 92.8365 17.3449 92.8157 17.5803C92.9974 17.5131 93.1422 17.625 93.3422 17.4771C93.7282 17.1037 93.685 16.6375 94.3803 16.3303C94.7438 16.6479 94.4345 16.8225 94.3698 17.0485C95.0803 16.9683 95.099 16.2902 95.8219 15.9902C96.2157 16.2449 96.4979 16.1391 96.7277 16.4725C96.3022 16.6694 96.2751 16.9522 95.9995 17.1813C95.6255 17.347 95.0298 16.7856 94.8381 17.2204C95.2495 16.9892 94.6803 17.5569 94.8037 17.7178C94.1918 17.9965 93.7318 17.5632 93.1449 17.7235C93.3465 18.1256 92.7547 18.1433 92.7219 18.3537C93.0845 18.4225 93.1307 18.0173 93.4751 17.8667C93.7126 18.2017 93.2027 18.2652 93.6323 18.4761C93.1751 18.6271 93.123 18.8829 92.7422 18.9345C92.9105 19.0339 93.1897 19.0115 92.9589 19.2688C92.1031 19.7871 91.6198 18.5652 90.7787 19.0183C91.023 19.2225 91.3553 19.0173 91.5755 19.3334C91.2282 19.4751 91.2918 19.7048 91.5121 19.9678C90.9391 20.2907 90.5465 19.7626 90.0501 19.7272C89.8506 19.8725 89.6553 20.0006 89.4943 19.9688C89.7511 20.1147 90.0511 20.0574 90.2913 20.2834C89.8131 20.5626 90.3047 20.4157 90.4246 20.6725C89.4834 21.1402 88.8449 20.1964 88.0277 20.0876C88.5605 20.3095 87.3418 20.8985 87.0485 20.9589C87.5553 21.172 88.1689 20.885 88.6474 21.2292C88.3323 21.6964 88.1449 21.5152 87.8657 21.8537C88.2834 21.8126 88.4303 21.5074 88.6974 21.672C87.7485 22.6256 87.2787 21.3397 86.4579 21.697C86.6823 21.7699 86.9418 21.6792 87.147 21.8443C87.0361 21.9162 86.9241 21.9886 86.8126 22.061C86.9818 22.1615 87.2355 22.1339 87.1667 22.4251C86.5631 22.9016 85.8927 22.5443 85.2621 22.2339C85.1761 22.6537 84.6173 22.6542 84.5631 22.8048C85.0547 22.7058 85.4995 22.6188 86.0839 22.7699C85.1214 23.5391 83.8563 22.8704 82.9094 22.4511C82.7689 22.6131 82.2933 22.7037 82.3782 22.9141C82.7886 22.9053 83.2167 22.8105 83.535 23.2339C83.3678 23.3417 83.2001 23.4501 83.0334 23.5584C83.5151 23.6808 83.5361 23.8834 83.9631 24.2621C82.5626 24.8589 81.4569 22.2824 80.011 24.2089C80.4011 24.072 80.7194 24.2693 81.0599 24.3615C81.0913 24.6438 80.5995 24.549 80.6954 24.7152C80.8214 24.9141 80.999 24.8683 81.1042 25.1631C80.8755 25.4183 80.4407 24.9334 80.4397 25.2376C80.6662 25.1912 80.8126 25.5173 81.0151 25.5766C80.1194 26.061 79.5255 25.1345 78.7861 24.8834C77.749 25.086 76.6615 25.9954 76.0553 26.5329C76.3641 26.5501 76.6465 26.6897 76.9361 26.7938C76.6183 27.0907 76.9479 27.0798 77.1479 27.4871C77.7569 27.3365 78.3255 27.3714 78.8313 27.7037C76.3511 29.447 74.1761 30.8246 69.8553 31.2595C67.9069 31.5282 65.8355 30.7964 63.8022 31.2615L63.7126 31.2824C62.5365 31.3339 61.7157 31.4527 61.7157 31.4527L61.461 31.4855L61.7542 31.4001C55.7823 31.8084 50.0501 31.0938 44.4746 29.6475ZM53.1657 30.7871C55.4755 29.4464 57.9861 29.1459 60.3261 28.6438C62.7755 28.1183 64.9501 26.5542 67.5162 26.3631C62.5235 30.1964 57.2813 31.1027 53.1657 30.7871ZM68.2995 29.774C70.4589 28.7751 72.5985 27.8683 74.7803 26.7647C75.0255 26.8537 75.1979 27.2824 75.4355 27.4095C73.1579 27.724 70.5897 29.3996 68.2995 29.774ZM75.8293 26.9167C76.0657 27.1688 76.7594 27.0397 76.735 27.399C76.4839 27.2095 75.7902 27.3386 75.8293 26.9167ZM75.6173 26.2235C75.9818 25.9782 76.3397 25.7636 76.6162 25.9324C76.2402 26.2292 75.9126 26.3022 75.6173 26.2235ZM66.7694 30.5272C69.9027 30.0266 73.5203 27.2652 76.4246 27.8376C77.099 27.4912 77.6881 27.547 78.2506 27.7235C77.0323 28.0261 75.5323 27.8563 74.4219 28.7777C75.6875 28.2485 76.9183 27.8865 78.0531 27.9693C73.4402 31.1694 69.3913 31.5319 66.0755 30.7386C68.1678 30.5022 70.6735 30.1282 72.6746 29.197C70.6547 29.8792 68.6807 30.349 66.7694 30.5272ZM64.0329 30.5183C69.1631 27.5714 70.7418 23.1261 75.9407 20.672C74.6694 22.1053 73.1017 23.4746 71.7922 24.9001C73.3465 23.6954 74.5219 22.0256 75.9355 21.0308C73.8845 24.6376 68.7287 30.0115 63.7235 30.9563C66.3261 29.6678 69.4537 27.3756 71.3449 25.3089C69.2235 27.0996 66.7974 29.523 64.0329 30.5183ZM79.6225 24.3417C79.9517 24.3751 80.3235 24.211 80.6167 24.4105C80.3063 24.5016 79.6037 24.6709 79.6225 24.3417ZM79.3522 23.9235C79.4845 23.7084 79.8459 23.1693 80.2178 23.2443C80.1167 23.5355 79.737 24.1136 79.3522 23.9235ZM81.5219 22.8746C81.4547 22.4746 81.785 21.7803 82.3386 21.7522C82.1949 22.1542 81.8293 22.5084 81.5219 22.8746ZM81.8761 23.2386C82.4246 23.0334 82.935 23.0048 83.3974 23.2037C82.8162 23.5636 82.3131 23.5563 81.8761 23.2386ZM81.9402 22.6037C82.2214 22.448 82.1985 22.2266 82.5553 22.0871C82.8345 22.072 83.1402 22.3334 82.7173 22.3381C82.8391 21.9641 82.0913 22.8157 81.9402 22.6037ZM85.0943 22.3423C84.5527 22.7386 83.7531 22.5595 83.5741 22.3772C84.0667 22.4334 84.6219 22.1949 85.0943 22.3423ZM83.3714 20.9647C83.5126 20.8209 83.6881 20.3193 83.987 20.448C83.6553 20.5506 83.6542 21.0891 83.3714 20.9647ZM83.8839 21.9391C84.2474 21.6996 84.6198 21.4183 84.9126 21.51C84.5479 21.7532 84.199 21.9246 83.8839 21.9391ZM85.0011 21.0975C85.1949 20.8386 85.7537 20.3522 86.0589 20.5308C85.9303 20.8032 85.2626 21.2667 85.0011 21.0975ZM85.0943 20.324C85.4282 20.2449 85.4433 19.736 85.7631 19.8912C85.6189 20.0105 85.3485 20.4657 85.0943 20.324ZM85.2131 21.7907C85.4703 21.4912 86.3126 21.0563 86.6839 21.3131C86.1402 21.724 85.6381 21.935 85.2131 21.7907ZM85.4241 20.4673C85.6949 20.3277 85.7913 19.7834 85.985 19.8662C85.9146 20.048 85.8203 20.5933 85.4241 20.4673ZM85.5522 21.2147C85.9157 20.9756 86.2881 20.6949 86.5813 20.7865C86.2255 20.9876 85.8266 21.3902 85.5522 21.2147ZM86.3689 20.0928C86.661 19.8459 86.8126 19.6522 87.2594 19.6345C87.0761 19.9287 86.6777 20.1193 86.3689 20.0928ZM86.8318 20.624C86.5787 20.2792 87.4402 19.7975 87.7271 19.8069C87.5282 20.0824 87.1657 20.6063 86.8318 20.624ZM88.7511 19.7376C88.9897 19.8548 89.2954 19.6636 89.5235 19.8313C89.2861 19.9126 88.6547 20.0985 88.7511 19.7376ZM88.9673 20.0725C89.3397 20.1287 89.7203 20.1459 90.0698 20.3084C89.7094 20.41 89.0255 20.2636 88.9673 20.0725ZM88.7553 19.3782C89.0099 19.2819 89.1178 18.7928 89.4251 18.9454C89.2803 19.0652 89.0099 19.5199 88.7553 19.3782ZM88.623 18.9897C88.8777 18.8928 88.985 18.4037 89.2918 18.5563C89.147 18.6761 88.8766 19.1308 88.623 18.9897ZM89.4594 18.448C89.7058 18.334 89.6855 17.5532 90.0746 17.9307C89.8323 18.0532 89.8225 18.5902 89.4594 18.448ZM90.0298 19.1464C90.4418 19.1308 90.837 19.1938 91.2167 19.3282C90.7787 19.6819 90.1022 19.3839 90.0298 19.1464ZM90.5615 18.6839C90.9287 18.4271 91.2626 18.3261 91.5605 18.3927C91.2079 18.5845 90.8563 18.7667 90.5615 18.6839ZM91.7766 18.7277C92.0735 18.8001 92.4214 18.6381 92.6881 18.8506C92.3985 18.9522 91.7241 19.1095 91.7766 18.7277ZM91.1766 18.1673C91.6031 17.8583 92.0011 17.6807 92.3427 17.7678C92.0386 18.1022 91.5813 18.2422 91.1766 18.1673ZM91.9198 18.3985C92.1755 18.2137 92.423 18.0683 92.6137 18.1861C92.3678 18.3255 92.0865 18.6298 91.9198 18.3985ZM91.2105 17.6704C91.523 17.4235 91.8099 16.825 92.2146 17.0204C91.811 17.1777 91.6386 17.7563 91.2105 17.6704ZM93.8979 17.2361C93.6506 17.0334 94.247 16.4255 94.4293 16.773C94.1391 16.9031 94.2318 17.1151 93.8979 17.2361ZM95.4829 16.5662C95.5157 16.3823 95.8886 16.0974 96.0381 16.325C95.8605 16.3719 95.6126 16.7444 95.4829 16.5662ZM85.9511 22.3813C86.1527 22.2501 86.6761 22.3277 86.5563 22.5829C86.3479 22.5475 86.1287 22.5605 85.9511 22.3813ZM83.2501 23.8928C82.9594 23.8886 82.2569 24.0595 82.3146 23.549C82.5694 23.7204 83.2881 23.4725 83.2501 23.8928ZM81.9151 20.3647C81.8022 20.5376 81.6949 21.0798 81.4918 20.9943C81.5761 20.8157 81.6834 20.2735 81.9151 20.3647ZM86.4031 19.5954C86.1845 19.3048 86.5662 18.7704 86.8558 18.8282C86.7246 19.0881 86.6735 19.3657 86.4031 19.5954ZM90.5714 17.9651C90.8657 18.3427 90.0949 18.8694 89.7298 18.8662C89.8735 18.5365 90.3823 18.285 90.5714 17.9651ZM88.2886 21.224C87.7569 21.4652 87.2907 21.397 86.8511 21.2042C87.3751 21.0027 87.8246 21.147 88.2886 21.224Z" fill="white"/>
</svg>
