<svg width="130" height="45" viewBox="0 0 130 45" fill="none" xmlns="http://www.w3.org/2000/svg">
<path d="M43.155 36.0125L32.4198 25.2772V17.8817L43.1394 7.16201L35.9774 0L25.6898 10.3071L21.5678 6.20448L17.4691 10.3071L7.16201 0L1.1249 6.03711L0 7.16201L10.7236 17.905V25.3006L0 35.9969L7.16201 43.1628L10.7236 39.6012V45H32.4198V39.6051L35.993 43.1784L43.155 36.0125ZM6.42245 32.5638L8.36865 30.6176L12.5413 34.798L10.5951 36.7442L6.42245 32.5638ZM9.10432 38.2311L7.15812 40.1773L2.98547 35.9969L4.93167 34.0507L9.10432 38.2311ZM14.6237 16.134L17.2122 18.7263L14.3552 21.5833L17.22 24.4481L14.6354 27.0327L12.8449 25.2344V17.9245L14.6237 16.134ZM21.5678 17.3562L22.9418 18.7263L21.5717 20.0964L20.1976 18.7263L21.5678 17.3562ZM30.3101 17.9323V25.2578L28.5196 27.0444L25.9195 24.4481L28.8037 21.5833L25.9467 18.7263L28.5352 16.1379L30.3101 17.9323ZM27.1767 31.3766L31.3533 27.1962L33.2995 29.1424L29.119 33.3189L27.1767 31.3766ZM25.7988 21.5833L24.4287 22.9651L23.0625 21.5989L24.4326 20.2288L25.7988 21.5833ZM21.5678 25.8144L20.2054 24.4481L21.5717 23.0819L22.934 24.4481L21.5678 25.8144ZM20.077 21.5872L18.7108 22.9651L17.3406 21.595L18.7069 20.2288L20.077 21.5872ZM15.9783 31.361L14.0321 33.3072L9.85555 29.1268L11.8017 27.1806L15.9783 31.361ZM18.9599 31.361L16.1262 28.5196L18.7108 25.935L21.5678 28.8037L24.4287 25.9467L27.0288 28.5468L24.1874 31.3805L30.0571 37.2425H13.0823L18.9599 31.361ZM30.6137 34.8058L34.7902 30.6332L36.7364 32.5794L32.556 36.7559L30.6137 34.8058ZM36.7209 10.5951L34.7747 12.5413L30.5981 8.36476L32.5443 6.41856L36.7209 10.5951ZM34.0351 4.92388L35.9813 2.97768L40.154 7.16201L38.2078 9.10821L34.0351 4.92388ZM29.1073 9.85555L33.2839 14.036L31.3377 15.9822L27.1611 11.7979L29.1073 9.85555ZM27.021 14.6432L24.4326 17.2316L21.5678 14.3707L18.7069 17.2316L16.1184 14.6432L21.5678 9.19384L27.021 14.6432ZM11.7979 15.9783L9.85166 14.0321L14.0321 9.85555L15.9783 11.8017L11.7979 15.9783ZM10.599 6.41856L12.5452 8.36476L8.36476 12.5413L6.41856 10.5951L10.599 6.41856ZM4.92777 9.10432L2.98158 7.15812L7.16201 2.98547L9.10821 4.93167L4.92777 9.10432ZM12.8449 42.8709V39.3677H30.3101V42.8709H12.8449ZM36.0008 40.189L34.0546 38.2428L38.2272 34.0701L40.1734 36.0163L36.0008 40.189Z" fill="white"/>
<path d="M129.668 33.7043V11.2958H105.625V33.7043H112.694V17.2161H122.604V33.7043H129.668Z" fill="white"/>
<path d="M102.915 11.2958H94.8738L90.3703 17.1305L85.8668 11.2958H77.8212L86.3455 22.319L77.5215 33.7043H85.5632L90.3703 27.5037L95.1735 33.7043H103.219L94.3911 22.319L102.915 11.2958Z" fill="white"/>
<path d="M75.1118 33.7043V11.2958H68.23L62.01 20.1315L55.7861 11.2958H48.9043V33.7043H55.6654V21.3654L61.683 29.8586H62.3331L68.3468 21.3654V33.7043H75.1118Z" fill="white"/>
</svg>
