<svg width="167" height="30" viewBox="0 0 167 30" fill="none" xmlns="http://www.w3.org/2000/svg">
<g clip-path="url(#clip0_987_5529)">
<path d="M54.9981 0C52.0322 0 49.1328 0.879511 46.6667 2.52731C44.2006 4.17512 42.2785 6.5172 41.1435 9.2574C40.0085 11.9976 39.7115 15.0128 40.2901 17.9218C40.8687 20.8308 42.297 23.5028 44.3942 25.6001C46.4915 27.6973 49.1636 29.1256 52.0725 29.7042C54.9815 30.2829 57.9967 29.9859 60.7369 28.8509C63.4771 27.7158 65.8192 25.7937 67.467 23.3276C69.1148 20.8615 69.9943 17.9622 69.9943 14.9962C69.9943 13.0269 69.6065 11.0768 68.8528 9.2574C68.0992 7.43797 66.9946 5.78481 65.6021 4.39228C64.2095 2.99976 62.5564 1.89515 60.7369 1.14152C58.9175 0.387888 56.9675 0 54.9981 0V0ZM54.9981 23.7789C53.2611 23.7789 51.563 23.2638 50.1187 22.2988C48.6744 21.3337 47.5487 19.962 46.884 18.3572C46.2192 16.7524 46.0453 14.9864 46.3842 13.2828C46.7231 11.5791 47.5595 10.0142 48.7878 8.78587C50.0161 7.55758 51.581 6.72111 53.2847 6.38223C54.9884 6.04334 56.7543 6.21727 58.3592 6.88201C59.964 7.54676 61.3357 8.67246 62.3007 10.1168C63.2658 11.5611 63.7809 13.2591 63.7809 14.9962C63.7809 17.3255 62.8556 19.5594 61.2085 21.2065C59.5614 22.8536 57.3275 23.7789 54.9981 23.7789Z" fill="white"/>
<path d="M87.9788 18.1906H76.0703V28.5667H87.9788V18.1906Z" fill="white"/>
<path d="M87.9788 1.43335H76.0703V11.8095H87.9788V1.43335Z" fill="white"/>
<path d="M160.423 17.535C160.26 17.5884 160.09 17.6141 159.919 17.6112C159.617 17.5932 159.323 17.507 159.059 17.3591C158.795 17.2112 158.568 17.0055 158.395 16.7573L156.74 14.7294L158.875 12.0991H160.323L158.219 14.6836L159.34 16.0102C159.411 16.1158 159.506 16.2032 159.618 16.2654C159.729 16.3276 159.853 16.3629 159.98 16.3685C160.138 16.3674 160.294 16.3336 160.438 16.2694L160.423 17.535Z" fill="white"/>
<path d="M156.618 12.0763H155.367V17.4969H156.618V12.0763Z" fill="white"/>
<path d="M149.993 16.3228C150.173 16.4141 150.37 16.4661 150.572 16.4753C150.676 16.4807 150.78 16.4614 150.876 16.419C150.971 16.3766 151.055 16.3123 151.121 16.2313L149.062 12.0763H150.412L151.799 14.8666H151.845L152.981 12.0763H154.323L152.326 16.3533C152.215 16.7159 151.994 17.0348 151.693 17.2658C151.392 17.4967 151.027 17.6281 150.648 17.6417C150.432 17.648 150.216 17.6197 150.008 17.5579L149.993 16.3228Z" fill="white"/>
<path d="M146.706 12.0914H145.364L143.184 17.5349H144.434L144.907 16.3684H147.14L147.613 17.5349H148.909L146.706 12.0914ZM145.311 15.3545L146.02 13.6086L146.729 15.3545H145.311Z" fill="white"/>
<path d="M129.333 12.0914H128.181L125.604 15.667H125.559V12.0914H124.301V17.4968H125.467L128.029 13.9135H128.067V17.4968H129.333V12.0914Z" fill="white"/>
<path d="M157.945 1.23512C157.391 1.24114 156.852 1.41079 156.395 1.7227C155.937 2.03462 155.583 2.47487 155.375 2.98802C155.167 3.50118 155.116 4.06431 155.228 4.60651C155.339 5.14872 155.609 5.64577 156.002 6.0351C156.396 6.42442 156.896 6.68861 157.439 6.79442C157.983 6.90022 158.545 6.84291 159.056 6.6297C159.567 6.41648 160.003 6.05689 160.31 5.5962C160.617 5.13551 160.781 4.5943 160.781 4.04071C160.782 3.66941 160.709 3.30161 160.567 2.95875C160.424 2.61589 160.215 2.30483 159.951 2.0437C159.687 1.78257 159.374 1.57659 159.029 1.43777C158.685 1.29895 158.316 1.23006 157.945 1.23512ZM157.945 5.68747C157.734 5.68815 157.525 5.64506 157.332 5.56092C157.138 5.47678 156.965 5.35342 156.821 5.19865C156.678 5.04388 156.568 4.86106 156.499 4.66175C156.43 4.46243 156.403 4.25097 156.42 4.04071C156.405 3.82578 156.435 3.61006 156.507 3.40697C156.578 3.20387 156.691 3.01776 156.838 2.86019C156.985 2.70263 157.163 2.57698 157.361 2.49108C157.558 2.40517 157.771 2.36084 157.987 2.36084C158.202 2.36084 158.416 2.40517 158.613 2.49108C158.811 2.57698 158.989 2.70263 159.135 2.86019C159.282 3.01776 159.395 3.20387 159.467 3.40697C159.539 3.61006 159.569 3.82578 159.554 4.04071C159.571 4.25822 159.542 4.47702 159.468 4.68233C159.394 4.88763 159.277 5.07466 159.125 5.23078C158.972 5.38689 158.788 5.50845 158.584 5.58724C158.381 5.66602 158.163 5.70021 157.945 5.68747Z" fill="white"/>
<path d="M153.096 3.81195C153.272 3.70726 153.419 3.56049 153.524 3.38482C153.629 3.20916 153.689 3.01011 153.698 2.80559C153.698 1.9136 152.936 1.35706 151.761 1.35706H149.855V6.74715H152.059C153.24 6.74715 154.003 6.09911 154.003 5.07751C153.992 4.80106 153.9 4.53393 153.739 4.30906C153.577 4.08419 153.354 3.91138 153.096 3.81195ZM151.113 2.3939H151.67C152.105 2.3939 152.432 2.57688 152.432 2.95807C152.432 3.33927 152.181 3.53749 151.777 3.53749H151.121L151.113 2.3939ZM151.96 5.73317H151.113V4.44473H151.975C152.064 4.43513 152.154 4.44432 152.239 4.47169C152.325 4.49907 152.403 4.54402 152.47 4.60366C152.537 4.66329 152.59 4.73627 152.627 4.81789C152.664 4.89951 152.683 4.98796 152.684 5.07751C152.682 5.16814 152.662 5.25744 152.624 5.33965C152.586 5.42186 152.531 5.49515 152.462 5.55479C152.394 5.61442 152.314 5.65907 152.228 5.68586C152.141 5.71265 152.05 5.72097 151.96 5.7103V5.73317Z" fill="white"/>
<path d="M128.684 1.33423H132.015V2.44732H129.949V3.40793H131.886V4.52101H129.949V5.6341H132.069V6.74719H128.684V1.33423Z" fill="white"/>
<path d="M122.904 1.33423H127.387V2.46256H125.771V6.74719H124.505V2.46256H122.904V1.33423Z" fill="white"/>
<path d="M111.813 4.47527H109.449V6.74719H108.191V1.33423H109.449V3.36218H111.813V1.33423H113.071V6.74719H111.813V4.47527Z" fill="white"/>
<path d="M106.377 1.33423H105.111V6.73957H106.377V1.33423Z" fill="white"/>
<path d="M102.076 6.74719V3.50704H102.03L100.734 5.90856H99.9181L98.6068 3.50704H98.5611V6.74719H97.3184V1.33423H98.5763L100.33 4.4524L102.076 1.33423H103.303V6.74719H102.076Z" fill="white"/>
<path d="M116.15 1.33423H114.885V6.73957H116.15V1.33423Z" fill="white"/>
<path d="M135.797 1.33416H133.738V6.74712H135.004V4.93264H135.766C136.013 4.94388 136.259 4.90613 136.491 4.82158C136.723 4.73703 136.936 4.60736 137.117 4.44005C137.299 4.27274 137.445 4.07112 137.548 3.84684C137.652 3.62257 137.709 3.38008 137.718 3.1334C137.71 2.88907 137.654 2.64869 137.553 2.426C137.452 2.20331 137.309 2.00268 137.13 1.83558C136.952 1.66848 136.742 1.53819 136.513 1.45215C136.285 1.36611 136.041 1.32602 135.797 1.33416ZM135.705 3.81193H135.019V2.42438H135.705C135.803 2.4146 135.902 2.4258 135.996 2.45724C136.089 2.48867 136.174 2.53962 136.247 2.60669C136.319 2.67377 136.376 2.75543 136.414 2.84624C136.452 2.93706 136.47 3.03495 136.468 3.1334C136.464 3.22858 136.441 3.32202 136.4 3.40813C136.359 3.49424 136.302 3.57126 136.231 3.6346C136.159 3.69793 136.076 3.74627 135.986 3.77674C135.896 3.8072 135.8 3.81917 135.705 3.81193Z" fill="white"/>
<path d="M144.068 1.33423H148.551V2.46256H146.935V6.74719H145.669V2.46256H144.068V1.33423Z" fill="white"/>
<path d="M100.246 11.9923C99.6919 11.9983 99.1522 12.1682 98.6947 12.4804C98.2372 12.7927 97.8823 13.2334 97.6749 13.747C97.4674 14.2606 97.4167 14.8241 97.529 15.3665C97.6413 15.9089 97.9116 16.406 98.3059 16.795C98.7002 17.184 99.2009 17.4476 99.7448 17.5525C100.289 17.6575 100.851 17.5991 101.362 17.3847C101.873 17.1703 102.309 16.8095 102.615 16.3478C102.921 15.8862 103.083 15.3442 103.082 14.7903C103.082 14.4196 103.008 14.0527 102.865 13.7107C102.722 13.3687 102.513 13.0586 102.249 12.7982C101.985 12.5379 101.672 12.3326 101.328 12.1943C100.984 12.0559 100.616 11.9873 100.246 11.9923ZM100.246 16.4447C100.035 16.4454 99.8261 16.4023 99.6327 16.3181C99.4392 16.234 99.2654 16.1106 99.1221 15.9559C98.9788 15.8011 98.8691 15.6183 98.8001 15.4189C98.7311 15.2196 98.7041 15.0082 98.721 14.7979C98.706 14.583 98.7354 14.3673 98.8073 14.1642C98.8793 13.9611 98.9922 13.775 99.1392 13.6174C99.2861 13.4598 99.4639 13.3342 99.6615 13.2483C99.8591 13.1624 100.072 13.118 100.288 13.118C100.503 13.118 100.716 13.1624 100.914 13.2483C101.112 13.3342 101.289 13.4598 101.436 13.6174C101.583 13.775 101.696 13.9611 101.768 14.1642C101.84 14.3673 101.869 14.583 101.854 14.7979C101.872 15.0154 101.843 15.2342 101.769 15.4395C101.695 15.6448 101.578 15.8319 101.425 15.988C101.273 16.1441 101.089 16.2656 100.885 16.3444C100.682 16.4232 100.464 16.4574 100.246 16.4447Z" fill="white"/>
<path d="M113.511 14.5463C113.688 14.4422 113.835 14.2955 113.941 14.1197C114.046 13.944 114.105 13.7446 114.114 13.54C114.114 12.648 113.351 12.0914 112.17 12.0914H110.264V17.5349H112.467C113.679 17.5349 114.411 16.8564 114.411 15.8653C114.411 15.5805 114.325 15.3024 114.165 15.0672C114.004 14.8319 113.776 14.6504 113.511 14.5463ZM111.529 13.1283H112.071C112.505 13.1283 112.833 13.3113 112.833 13.6924C112.833 14.0736 112.581 14.2719 112.177 14.2719H111.522L111.529 13.1283ZM112.383 16.4675H111.529V15.202H112.391C112.48 15.1924 112.57 15.2016 112.655 15.2289C112.74 15.2563 112.819 15.3013 112.886 15.3609C112.953 15.4205 113.006 15.4935 113.043 15.5751C113.08 15.6568 113.099 15.7452 113.1 15.8348C113.097 15.9247 113.076 16.0132 113.037 16.0945C112.999 16.1758 112.944 16.2482 112.875 16.307C112.807 16.3658 112.728 16.4098 112.642 16.4361C112.555 16.4624 112.465 16.4705 112.375 16.4599L112.383 16.4675Z" fill="white"/>
<path d="M140.889 15.2325H138.533V17.4968H137.268V12.0914H138.533V14.1194H140.889V12.0914H142.154V17.4968H140.889V15.2325Z" fill="white"/>
<path d="M117.18 12.0914H115.914V17.4968H117.18V12.0914Z" fill="white"/>
<path d="M118.521 12.0914H123.004V13.2121H121.388V17.4968H120.122V13.2121H118.521V12.0914Z" fill="white"/>
<path d="M108.617 16.0941C108.166 16.3323 107.663 16.4554 107.153 16.4524C106.934 16.4674 106.714 16.4349 106.509 16.3572C106.304 16.2794 106.117 16.1582 105.963 16.0018C105.809 15.8454 105.69 15.6576 105.616 15.4511C105.541 15.2447 105.511 15.0245 105.529 14.8056C105.512 14.5895 105.54 14.372 105.614 14.1679C105.687 13.9637 105.803 13.7774 105.953 13.6216C106.104 13.4657 106.286 13.3438 106.488 13.264C106.69 13.1842 106.906 13.1484 107.123 13.1589C107.626 13.1562 108.122 13.2822 108.564 13.5248V12.2516C108.108 12.0894 107.629 12.0019 107.146 11.9924C106.77 11.9833 106.397 12.0492 106.047 12.1864C105.697 12.3236 105.378 12.5293 105.109 12.7913C104.84 13.0533 104.626 13.3665 104.479 13.7124C104.333 14.0583 104.257 14.43 104.256 14.8056C104.25 15.1858 104.323 15.563 104.469 15.914C104.615 16.265 104.832 16.5822 105.106 16.846C105.379 17.1098 105.704 17.3145 106.061 17.4475C106.417 17.5804 106.796 17.6387 107.176 17.6188C107.668 17.6192 108.156 17.5314 108.617 17.3596V16.0941Z" fill="white"/>
<path d="M133.937 12.0914H132.672V17.4968H133.937V12.0914Z" fill="white"/>
<path d="M166.772 12.0914H165.613L163.036 15.667H162.998V12.0914H161.732V17.4968H162.899L165.461 13.9135H165.506V17.4968H166.772V12.0914Z" fill="white"/>
<path d="M121.983 5.33674C121.532 5.57436 121.029 5.69741 120.519 5.69506C120.3 5.71008 120.08 5.6776 119.875 5.59983C119.669 5.52206 119.483 5.40084 119.329 5.24447C119.175 5.0881 119.056 4.90026 118.981 4.69381C118.906 4.48736 118.877 4.26717 118.895 4.0483C118.878 3.8348 118.906 3.62007 118.977 3.41809C119.048 3.21611 119.162 3.03142 119.309 2.87606C119.456 2.7207 119.635 2.59814 119.833 2.51638C120.031 2.43462 120.244 2.39549 120.458 2.40154C120.962 2.40053 121.459 2.52917 121.899 2.77511V1.5248C121.438 1.3488 120.951 1.25088 120.458 1.23509C120.082 1.22595 119.709 1.29191 119.359 1.42909C119.01 1.56628 118.691 1.77193 118.422 2.03397C118.152 2.29602 117.938 2.60918 117.792 2.95508C117.645 3.30098 117.569 3.67266 117.569 4.0483C117.564 4.42948 117.637 4.80758 117.785 5.15913C117.932 5.51068 118.15 5.82819 118.426 6.09197C118.701 6.35575 119.027 6.56017 119.385 6.69254C119.742 6.82492 120.123 6.88244 120.504 6.86152C121.008 6.86634 121.51 6.77848 121.983 6.60231V5.33674Z" fill="white"/>
<path d="M143.107 5.33671C142.656 5.57463 142.154 5.6977 141.644 5.69504C141.424 5.71006 141.205 5.67757 140.999 5.5998C140.794 5.52203 140.608 5.40082 140.454 5.24444C140.299 5.08807 140.181 4.90024 140.106 4.69379C140.031 4.48734 140.002 4.26714 140.02 4.04828C140.002 3.83212 140.031 3.61469 140.104 3.41051C140.177 3.20633 140.293 3.02009 140.444 2.86424C140.594 2.70838 140.777 2.58648 140.978 2.50669C141.18 2.4269 141.396 2.39104 141.613 2.40152C142.117 2.4005 142.614 2.52914 143.054 2.77509V1.52477C142.599 1.36191 142.12 1.27436 141.636 1.26556C141.264 1.25747 140.893 1.3232 140.547 1.45896C140.2 1.59471 139.883 1.7978 139.615 2.05651C139.347 2.31522 139.133 2.62442 138.986 2.96627C138.838 3.30813 138.759 3.67587 138.754 4.04828C138.75 4.42743 138.823 4.80352 138.969 5.15346C139.115 5.5034 139.331 5.8198 139.603 6.08324C139.876 6.34669 140.2 6.55161 140.554 6.68544C140.909 6.81927 141.288 6.87918 141.666 6.86149C142.158 6.86187 142.646 6.77408 143.107 6.60228V5.33671Z" fill="white"/>
<path d="M108.899 28.2847C108.737 28.3381 108.567 28.3638 108.396 28.3609C108.094 28.3429 107.8 28.2567 107.535 28.1088C107.271 27.9609 107.044 27.7552 106.871 27.507L105.209 25.4867L107.344 22.8564H108.792L106.688 25.4409L107.824 26.8132C107.895 26.9193 107.99 27.007 108.101 27.0693C108.212 27.1316 108.337 27.1666 108.464 27.1716C108.622 27.1711 108.778 27.1373 108.922 27.0725L108.899 28.2847Z" fill="white"/>
<path d="M105.325 22.8564H104.074V28.277H105.325V22.8564Z" fill="white"/>
<path d="M98.6996 27.0953C98.8797 27.1869 99.0773 27.2388 99.2791 27.2478C99.3827 27.2541 99.4863 27.236 99.5816 27.195C99.677 27.1539 99.7614 27.0911 99.828 27.0115L97.7695 22.8717H99.1113L100.499 25.662H100.545L101.681 22.8717H103.022L101.025 27.1487C100.914 27.5113 100.693 27.8302 100.392 28.0612C100.092 28.2921 99.7265 28.4236 99.3477 28.4371C99.1311 28.4437 98.9149 28.4154 98.7073 28.3533L98.6996 27.0953Z" fill="white"/>
<path d="M118.026 22.8717H116.684L114.504 28.277H115.754L116.227 27.1106H118.438L118.911 28.277H120.207L118.026 22.8717ZM116.646 26.1271L117.355 24.3812L118.064 26.1271H116.646Z" fill="white"/>
<path d="M127.922 26.0051H125.566V28.277H124.301V22.864H125.566V24.892H127.922V22.864H129.188V28.277H127.922V26.0051Z" fill="white"/>
<path d="M122.492 22.864H121.227V28.2694H122.492V22.864Z" fill="white"/>
<path d="M136.034 22.864H134.875L132.305 26.4472H132.26V22.864H130.994V28.277H132.161L134.73 24.6861H134.768V28.277H136.034V22.864Z" fill="white"/>
<path d="M112.277 22.8716H110.219V28.277H111.484V26.4549H112.247C112.497 26.4779 112.749 26.4485 112.987 26.3686C113.226 26.2887 113.444 26.1599 113.63 25.9906C113.816 25.8213 113.964 25.6151 114.066 25.3852C114.167 25.1554 114.219 24.9069 114.219 24.6556C114.219 24.4044 114.167 24.1559 114.066 23.926C113.964 23.6961 113.816 23.49 113.63 23.3206C113.444 23.1513 113.226 23.0226 112.987 22.9426C112.749 22.8627 112.497 22.8333 112.247 22.8564L112.277 22.8716ZM112.17 25.3799H111.484V23.9466H112.17C112.268 23.9368 112.367 23.948 112.461 23.9795C112.554 24.0109 112.64 24.0618 112.712 24.1289C112.784 24.196 112.841 24.2776 112.879 24.3685C112.917 24.4593 112.936 24.5572 112.933 24.6556C112.933 24.7534 112.913 24.8502 112.874 24.9399C112.835 25.0296 112.778 25.1102 112.707 25.1768C112.635 25.2434 112.55 25.2945 112.458 25.3268C112.366 25.3591 112.268 25.372 112.17 25.3646V25.3799Z" fill="white"/>
<path d="M121.555 21.324H120.541V22.2693H121.555V21.324Z" fill="white"/>
<path d="M123.18 21.324H122.166V22.2693H123.18V21.324Z" fill="white"/>
<path fill-rule="evenodd" clip-rule="evenodd" d="M8.92052 29.939L8.8519 29.8628C8.63108 29.5103 8.3405 29.2068 7.99803 28.9708C7.38642 28.5064 6.8469 27.954 6.39701 27.3316C5.81847 26.5382 5.38722 25.6473 5.12382 24.7014C5.07413 24.5308 5.03341 24.3578 5.00184 24.183C5.00184 24.061 4.93322 24.0153 4.79599 24.0153H0.221659C0.0234375 24.0153 0.0234375 24.0153 0.0234375 23.8247V2.47777C0.206922 2.57489 0.385068 2.68178 0.55711 2.79798C0.9688 3.10293 1.38811 3.41551 1.78456 3.74334C2.3412 4.22554 2.82865 4.78225 3.23309 5.39772C3.83636 6.29119 4.27526 7.28518 4.52916 8.33292C4.73699 9.39901 4.88715 10.4755 4.97897 11.5578C5.14669 12.8234 5.28392 14.089 5.4364 15.3698C5.4364 15.446 5.4364 15.5299 5.4364 15.6061C5.4364 15.6823 5.4364 15.7815 5.26105 15.8043C5.03095 15.8074 4.80246 15.8434 4.58252 15.9111C4.37066 15.9984 4.18198 16.1337 4.03138 16.3065C3.88078 16.4792 3.77237 16.6845 3.7147 16.9063C3.65704 17.1281 3.6517 17.3603 3.6991 17.5844C3.74651 17.8087 3.84536 18.0188 3.98786 18.1982C4.22831 18.4857 4.56361 18.6777 4.93322 18.7395L5.63462 18.8844C5.66802 18.897 5.70502 18.8961 5.73776 18.8818C5.7705 18.8676 5.7964 18.8412 5.80997 18.8081C6.11492 18.1906 6.458 17.5807 6.72484 16.9479C6.99167 16.3151 7.21276 15.6442 7.42623 14.9809C7.83851 13.8403 8.08498 12.6465 8.15813 11.4358C8.15813 10.5286 8.15813 9.61373 8.10476 8.69886C8.03615 7.34944 7.93703 6.00001 7.8608 4.65058C7.8608 4.05592 7.7998 3.46125 7.82268 2.87421C7.85292 1.99531 8.15676 1.14776 8.6918 0.449818C8.94339 0.106743 8.92814 0.182982 9.13398 0.449818C9.65532 1.1028 9.95924 1.90257 10.0031 2.73698C10.0031 3.49937 10.0031 4.26176 9.94974 5.02415C9.86588 6.74715 9.75152 8.46252 9.66766 10.1855C9.60243 11.7 9.80107 13.2143 10.2547 14.6607C10.5199 15.5845 10.8485 16.4888 11.2382 17.3672C11.4593 17.8399 11.7185 18.305 11.9624 18.77C11.9693 18.792 11.9805 18.8124 11.9955 18.8299C12.0106 18.8473 12.029 18.8615 12.0498 18.8715C12.0705 18.8815 12.0931 18.8872 12.1161 18.8881C12.1391 18.889 12.1621 18.8851 12.1835 18.8768C12.5284 18.8118 12.8695 18.7278 13.2051 18.6252C13.472 18.5326 13.7039 18.3599 13.869 18.1307C14.0341 17.9014 14.1244 17.6268 14.1276 17.3444C14.1553 17.0046 14.0628 16.6658 13.8664 16.3872C13.67 16.1086 13.382 15.9077 13.0527 15.8196C12.8691 15.7853 12.6828 15.7675 12.4961 15.7662H12.336C12.3818 15.385 12.4275 15.0038 12.4732 14.6607C12.6257 13.3723 12.7706 12.0762 12.9383 10.7878C13.0097 9.91054 13.1422 9.0393 13.3347 8.18044C13.6528 6.97697 14.2132 5.85108 14.9815 4.87167C15.2165 4.55123 15.4711 4.24569 15.7439 3.95681C16.3388 3.36179 17.0105 2.84898 17.7414 2.43203H17.8252C17.8252 2.49302 17.8252 2.54639 17.8252 2.59975C17.8252 8.6023 17.8252 14.6048 17.8252 20.6074V23.7713C17.8252 23.9695 17.8252 23.9695 17.6346 23.9695H13.0145C12.8773 23.9695 12.8239 23.9695 12.7935 24.1525C12.6786 24.8109 12.4787 25.4516 12.1988 26.0585C11.883 26.7054 11.4831 27.3079 11.0095 27.8501C10.5898 28.3185 10.1279 28.7473 9.62954 29.1309C9.41881 29.325 9.22498 29.5367 9.05012 29.7637C9.00266 29.8188 8.95934 29.8775 8.92052 29.939ZM1.52534 5.5502H1.47198V5.76367C1.47198 9.21983 1.47198 12.6735 1.47198 16.1245C1.47198 16.216 1.47198 16.3151 1.47198 16.4066C1.47198 16.4981 1.47198 16.5133 1.57871 16.5133H2.18862C2.20968 16.5166 2.23116 16.5156 2.25182 16.5104C2.27248 16.5052 2.2919 16.496 2.30894 16.4832C2.32598 16.4704 2.3403 16.4543 2.35106 16.436C2.36182 16.4176 2.3688 16.3972 2.3716 16.3761C2.48206 16.0123 2.6636 15.6741 2.9057 15.3809C3.1478 15.0878 3.44566 14.8456 3.78201 14.6684C3.81342 14.6509 3.83803 14.6233 3.85186 14.5901C3.86569 14.5569 3.86794 14.52 3.85825 14.4854C3.85825 14.3024 3.81251 14.1118 3.78964 13.9212C3.62954 12.5413 3.45419 11.169 3.30171 9.78908C3.16196 8.43703 2.67332 7.14448 1.88367 6.03813C1.76168 5.87803 1.63208 5.71793 1.52534 5.5502ZM16.3691 16.521V5.55782H16.3157C16.1556 5.78654 15.9879 6.00763 15.8278 6.23635C15.1558 7.20825 14.727 8.32729 14.5774 9.49937C14.364 11.1614 14.181 12.831 13.9752 14.493C13.9752 14.615 14.0209 14.6684 14.1048 14.7217C14.2976 14.8396 14.4811 14.9722 14.6537 15.1182C15.0498 15.4763 15.3421 15.9346 15.4999 16.4447C15.5075 16.4649 15.5198 16.483 15.5357 16.4976C15.5515 16.5122 15.5707 16.5228 15.5914 16.5286L16.3691 16.521ZM1.45673 20.2567C1.45673 20.9581 1.45673 21.6518 1.45673 22.3456C1.45673 22.46 1.45673 22.4981 1.60921 22.4981H4.65876C4.78074 22.4981 4.82649 22.4981 4.83411 22.3456C4.85702 21.6918 4.95161 21.0424 5.1162 20.4092C5.1162 20.3253 5.1162 20.2948 5.03233 20.2872L4.53678 20.1728C4.02406 20.0454 3.55522 19.7821 3.17973 19.4104C2.79516 19.0699 2.50832 18.6331 2.34872 18.1449C2.34127 18.1036 2.31793 18.0669 2.28371 18.0427C2.2495 18.0184 2.20715 18.0086 2.16575 18.0153C1.98278 18.0153 1.7998 18.0153 1.61683 18.0153C1.43386 18.0153 1.45673 18.0153 1.45673 18.1754C1.46435 18.8844 1.45673 19.5705 1.45673 20.2567ZM14.6842 22.4981C15.1874 22.4981 15.6829 22.4981 16.209 22.4981C16.3538 22.4981 16.4072 22.4524 16.3995 22.3075C16.3995 22.3075 16.3995 22.2541 16.3995 22.2236C16.3995 21.6519 16.3995 21.0877 16.3995 20.5159C16.3995 19.7535 16.3995 18.9377 16.3995 18.1525C16.3995 18.0534 16.3996 18.0305 16.2776 18.0305H15.782C15.5457 18.0305 15.5457 18.0305 15.4694 18.2516C15.336 18.6498 15.1175 19.0143 14.8292 19.3197C14.5409 19.6251 14.1897 19.8642 13.7998 20.0203C13.4938 20.1288 13.1804 20.2154 12.8621 20.2796C12.763 20.2796 12.7325 20.3482 12.763 20.4473C12.9221 21.0734 13.0116 21.7151 13.0298 22.3609C13.0298 22.4752 13.0755 22.5134 13.1899 22.5134L14.6842 22.4981ZM7.289 19.2656C7.53297 19.3876 7.76168 19.4867 7.98278 19.6086C8.29316 19.7778 8.57177 19.9997 8.80616 20.2643C8.92052 20.3863 8.92052 20.4015 9.01963 20.2643C9.30044 19.9419 9.6459 19.6822 10.0336 19.5019C10.1937 19.4257 10.3614 19.3571 10.552 19.2732C9.88118 18.1221 9.33428 16.9031 8.92052 15.6366C8.50789 16.9035 7.96094 18.1226 7.289 19.2732V19.2656ZM11.3602 23.9848H9.83538C9.69815 23.9848 9.66003 23.9848 9.66003 24.1525C9.66003 25.0902 9.66003 26.0203 9.66003 26.9581C9.66003 26.9962 9.66003 27.0419 9.66003 27.1258C10.4912 26.2481 11.0774 25.1676 11.3602 23.9924V23.9848ZM6.48087 23.9848C6.61048 24.892 7.6702 26.8513 8.15813 27.0343C8.15961 27.0166 8.15961 26.9987 8.15813 26.9809C8.15813 26.0051 8.15813 25.0292 8.15813 24.061C8.15813 23.9543 8.10476 23.939 8.01327 23.939H6.4885L6.48087 23.9848ZM7.24326 22.46H8.00565C8.181 22.46 8.20387 22.46 8.16575 22.277C8.12231 22.0142 8.04545 21.758 7.93703 21.5146C7.8163 21.2856 7.64636 21.0862 7.43941 20.9306C7.23246 20.7751 6.99363 20.6673 6.74008 20.615C6.63335 20.615 6.56473 20.615 6.53424 20.737C6.40339 21.2508 6.32925 21.7775 6.31315 22.3075C6.31315 22.4066 6.31315 22.4371 6.44275 22.4371L7.24326 22.46ZM10.5901 22.46H11.3907C11.4821 22.46 11.5279 22.46 11.5279 22.3304C11.5214 21.8151 11.4497 21.3028 11.3144 20.8056C11.2611 20.615 11.2382 20.6074 11.0476 20.6607C10.6737 20.7587 10.3402 20.9722 10.0946 21.2707C9.84451 21.5732 9.69524 21.9464 9.66766 22.338C9.66766 22.4295 9.66766 22.4676 9.78964 22.46H10.5901Z" fill="white"/>
<path d="M29.8171 1.56287H29.0547V28.7878H29.8171V1.56287Z" fill="white"/>
</g>
<defs>
<clipPath id="clip0_987_5529">
<rect width="166.773" height="30" fill="white"/>
</clipPath>
</defs>
</svg>
