<svg width="99" height="30" viewBox="0 0 99 30" fill="none" xmlns="http://www.w3.org/2000/svg">
<path d="M71.9048 6.79333C75.4201 6.79333 77.954 9.33361 77.954 12.5474C77.954 15.8511 75.4137 18.3336 71.9048 18.3336H66.7986V22.4648C66.7986 22.7278 66.6831 22.8753 66.4458 22.8753H64.5277C64.2647 22.8753 64.1172 22.7278 64.1172 22.4648V7.2103C64.1172 6.94088 64.2647 6.79333 64.5277 6.79333H71.9048ZM71.9048 15.8254C74.0602 15.8254 75.2662 14.4398 75.2662 12.5474C75.2662 10.6871 74.0538 9.30153 71.9048 9.30153H66.7986V15.8254H71.9048Z" fill="white"/>
<path d="M98.4034 6.79333C98.6664 6.79333 98.7883 6.94088 98.7883 7.2103V22.4712C98.7883 22.7342 98.6728 22.8817 98.4034 22.8817H96.5174C96.2544 22.8817 96.1069 22.7342 96.1069 22.4712V15.4149L96.2544 10.7513H96.1069L93.6885 16.685L91.0328 22.4712C90.8852 22.7342 90.7056 22.8817 90.4426 22.8817H89.2623C88.9928 22.8817 88.8196 22.7342 88.6721 22.4712L86.042 16.7171L83.5338 10.7513H83.3863L83.5338 15.4149V22.4712C83.5338 22.7342 83.4184 22.8817 83.181 22.8817H81.3207C81.0577 22.8817 80.9102 22.7342 80.9102 22.4712V7.2103C80.9102 6.94088 81.0577 6.79333 81.3207 6.79333H84.0663C84.2715 6.79333 84.4768 6.97295 84.5666 7.17822L87.8767 14.4655L89.8845 19.1034H90.032L92.2452 13.6444L95.1703 7.2103C95.3179 6.94088 95.5231 6.79333 95.8182 6.79333H98.4034V6.79333Z" fill="white"/>
<path d="M59.9201 16.7811L58.0149 14.863C58.0149 14.9785 58.0213 15.0876 58.0213 15.1966C57.7647 21.4831 52.4404 26.3841 46.1603 26.1211C39.8802 25.8645 34.9729 20.5402 35.2359 14.26C35.4925 7.97993 40.8168 3.07901 47.0969 3.3356C52.5687 3.56012 56.995 7.62712 57.8738 12.8295L59.6763 14.6449L61.1453 12.2394C59.9907 5.53589 54.2879 0.301388 47.2316 0.0127206C39.1168 -0.32085 32.2466 6.01058 31.913 14.1253C31.5794 22.2401 37.9109 29.1104 46.0256 29.4439C54.1404 29.7775 61.0106 23.4461 61.3442 15.3377C61.357 15.0362 61.357 14.7412 61.3506 14.4461L59.9201 16.7811Z" fill="white"/>
<path d="M7.79401 6.79333C11.3093 6.79333 13.8432 9.33361 13.8432 12.5474C13.8432 15.8511 11.3029 18.3336 7.79401 18.3336H2.68781V22.4648C2.68781 22.7278 2.57234 22.8753 2.335 22.8753H0.410549C0.147541 22.8817 0 22.7342 0 22.4712V7.2103C0 6.94088 0.147541 6.79333 0.410549 6.79333H7.79401ZM7.79401 15.8254C9.94939 15.8254 11.1618 14.4398 11.1618 12.5474C11.1618 10.6871 9.94939 9.30153 7.79401 9.30153H2.68781V15.8254H7.79401Z" fill="white"/>
<path d="M23.7993 6.79333C27.3082 6.79333 29.8806 9.33361 29.8806 12.5474C29.8806 14.7926 28.6682 16.6786 26.8143 17.6216L29.5021 22.407C29.6496 22.67 29.5021 22.8817 29.1749 22.8817H27.0196C26.7501 22.8817 26.5449 22.6764 26.4294 22.4712L24.274 18.3079C24.1842 18.34 24.0367 18.34 23.8635 18.34H18.6995V22.4712C18.6995 22.7342 18.5841 22.8817 18.3146 22.8817H16.4543C16.1272 22.8817 16.0117 22.6764 16.0117 22.4712V7.2103C16.0117 6.94088 16.1593 6.79333 16.4223 6.79333H23.7993ZM23.7993 15.8254C25.9547 15.8254 27.1928 14.4398 27.1928 12.5474C27.1928 10.6871 25.9547 9.30153 23.7993 9.30153H18.6931V15.8254H23.7993Z" fill="white"/>
<path d="M46.6303 6.56238C51.2939 6.56238 54.9247 10.0456 54.9247 14.8567C54.9247 19.6358 51.2939 23.119 46.6303 23.119C41.9667 23.119 38.3359 19.6358 38.3359 14.8567C38.3359 10.0392 41.9667 6.56238 46.6303 6.56238ZM41.0494 14.8567C41.0494 18.1604 43.3267 20.6108 46.6303 20.6108C49.9339 20.6108 52.2112 18.1604 52.2112 14.8567C52.2112 11.521 49.9404 9.07058 46.6303 9.07058C43.3267 9.07058 41.0494 11.521 41.0494 14.8567Z" fill="white"/>
</svg>
