<svg width="99" height="50" viewBox="0 0 99 50" fill="none" xmlns="http://www.w3.org/2000/svg">
<path d="M77.824 34.08C77.5658 34.0282 77.354 33.9989 77.1523 33.9362C76.0778 33.6023 75.5004 32.8425 75.345 31.7525C75.2801 31.2957 75.2468 30.8311 75.2437 30.3697C75.2322 28.7077 75.2298 27.0466 75.2453 25.3846C75.2492 24.9432 75.2839 24.4926 75.3813 24.0643C75.682 22.7348 76.4473 22.1674 77.7544 21.9626C77.9817 21.927 78.2159 21.9309 78.4478 21.9301C80.0116 21.9278 81.5746 21.9309 83.1383 21.927C83.6253 21.9262 84.0945 21.995 84.5583 22.1535C85.3112 22.4101 85.7928 22.9226 86.0448 23.6601C86.1948 24.0999 86.2782 24.5567 86.279 25.0244C86.2813 27.0342 86.2837 29.0432 86.2775 31.053C86.2759 31.5183 86.1785 31.9713 86.0263 32.4127C85.7974 33.0736 85.3615 33.5358 84.723 33.8064C84.3117 33.9803 83.8827 34.1048 83.4336 34.1055C81.6194 34.1094 79.8052 34.1032 77.9902 34.1001C77.9515 34.1001 77.9129 34.0916 77.824 34.08ZM83.2002 27.9138C83.2002 27.5281 83.2002 27.1416 83.2002 26.7559C83.2002 26.2349 83.211 25.7131 83.1963 25.1929C83.1809 24.6665 82.9598 24.4238 82.445 24.3295C82.3321 24.3086 82.2154 24.2947 82.101 24.2947C81.2144 24.2916 80.327 24.2816 79.4403 24.297C78.6016 24.3117 78.3311 24.59 78.328 25.4217C78.3226 27.1393 78.3257 28.8577 78.3272 30.5753C78.3272 30.7291 78.3295 30.886 78.3581 31.036C78.4308 31.4186 78.6712 31.6389 79.0623 31.6938C79.1953 31.7123 79.3313 31.7178 79.4658 31.7178C80.3339 31.7201 81.2012 31.7201 82.0693 31.7178C82.2231 31.717 82.3793 31.7116 82.53 31.6837C82.9126 31.6126 83.1445 31.3653 83.1925 30.9819C83.2095 30.8489 83.201 30.7121 83.201 30.5768C83.2002 29.7281 83.2002 28.8793 83.2002 27.9138Z" fill="white"/>
<path d="M59.5422 31.5617C59.7122 31.4094 59.8197 31.2718 59.8212 31.0847C59.8243 30.5653 59.8228 30.0458 59.8228 29.514C59.5893 29.3795 59.359 29.3849 59.1325 29.3841C58.3603 29.3818 57.5881 29.3857 56.8158 29.3818C56.3528 29.3795 55.8898 29.3695 55.4268 29.3571C54.8772 29.3416 54.36 29.2017 53.8785 28.935C53.5144 28.7333 53.2307 28.4511 53.0312 28.0863C52.7677 27.6032 52.6239 27.0853 52.6154 26.5349C52.6069 25.9938 52.6076 25.4527 52.6162 24.9116C52.6239 24.4432 52.7321 23.9971 52.9253 23.5666C53.2036 22.9459 53.6705 22.5323 54.3021 22.3259C54.6654 22.2069 55.0519 22.1536 55.4314 22.0933C55.6393 22.0608 55.855 22.0701 56.0668 22.0701C57.8045 22.0685 59.5414 22.0685 61.2791 22.0701C61.4669 22.0701 61.6548 22.0871 61.831 22.0956C61.9215 22.5493 61.9361 23.739 61.8674 24.3806C61.7274 24.5259 61.5435 24.471 61.378 24.4718C59.9109 24.4764 58.4438 24.4741 56.9766 24.4749C56.822 24.4749 56.6666 24.4687 56.5136 24.4826C55.9934 24.529 55.7081 24.8088 55.6618 25.3321C55.6432 25.5431 55.6417 25.7588 55.6625 25.9691C55.7143 26.48 56.0173 26.766 56.5321 26.8062C56.6666 26.817 56.8019 26.8101 56.9372 26.8101C57.864 26.8108 58.7901 26.8124 59.7169 26.8101C60.2425 26.8085 60.755 26.8789 61.2528 27.0505C61.9562 27.2932 62.4332 27.7663 62.6829 28.4643C62.8266 28.8655 62.9248 29.2775 62.9178 29.7103C62.9093 30.2514 62.9171 30.7925 62.914 31.3336C62.9117 31.7441 62.8204 32.1383 62.672 32.5186C62.4023 33.2097 61.9091 33.6681 61.2103 33.9054C60.8617 34.0237 60.5053 34.1118 60.1343 34.1095C59.0923 34.1017 58.0488 34.1141 57.0083 34.0716C55.7762 34.0213 54.5455 33.9239 53.3149 33.842C53.1449 33.8304 52.9764 33.791 52.8195 33.7662C52.7244 33.3303 52.7112 32.1546 52.7916 31.5246C53.0815 31.4279 53.3891 31.5014 53.6898 31.5029C54.016 31.5045 54.3423 31.5532 54.6685 31.5671C55.9393 31.6204 57.2108 31.6745 58.4824 31.7132C58.8241 31.7232 59.1796 31.7804 59.5422 31.5617Z" fill="white"/>
<path d="M64.8813 27.7679C64.164 25.8741 63.4528 24.0266 62.7656 22.159C63.2333 22.0531 65.2856 22.0315 66.0485 22.1119C66.3199 22.7473 66.5216 23.4306 66.762 24.0993C67.0039 24.771 67.2266 25.4497 67.46 26.1245C67.6927 26.8001 67.9254 27.4749 68.1627 28.149C68.3969 28.8138 68.6272 29.4809 68.9001 30.2314C69.2093 29.6501 69.3338 29.1059 69.5262 28.5888C69.728 28.0462 69.9127 27.4974 70.1013 26.9501C70.2838 26.4206 70.46 25.8895 70.6424 25.36C70.831 24.8127 71.0243 24.267 71.2144 23.7205C71.3984 23.1925 71.5808 22.6646 71.7648 22.1312C72.142 22.0168 72.5084 22.0833 72.8694 22.0717C73.2165 22.0601 73.5644 22.0694 73.9114 22.0694C74.2763 22.0694 74.6411 22.0694 75.057 22.0694C75.0199 22.2433 75.0083 22.3708 74.965 22.4868C74.4502 23.8604 73.9308 25.2325 73.4113 26.6045C72.5834 28.7882 71.7548 30.972 70.9261 33.1549C70.8303 33.4069 70.7321 33.6581 70.6386 33.9008C70.2358 33.9967 68.1317 34.023 67.2807 33.9449C67.1044 33.8058 67.0774 33.5824 67.0039 33.3891C66.2982 31.5308 65.5994 29.6702 64.8813 27.7679Z" fill="white"/>
<path d="M95.7376 27.076C95.1702 28.1791 94.6307 29.2474 94.0695 30.3048C93.9002 30.6233 93.8267 30.9418 93.8352 31.2997C93.8507 31.9946 93.8414 32.6903 93.8383 33.386C93.8376 33.556 93.8237 33.7269 93.8144 33.9186C93.4758 34.0307 93.1473 33.9657 92.8265 33.9765C92.4794 33.9881 92.1316 33.9851 91.7845 33.9773C91.4622 33.9704 91.1352 34.0136 90.7866 33.9363C90.7734 33.764 90.7533 33.614 90.7525 33.4648C90.7487 32.7885 90.7363 32.1121 90.7564 31.4365C90.7688 31.0369 90.6791 30.6851 90.4951 30.3303C89.2406 27.914 87.9991 25.4914 86.7538 23.0696C86.6387 22.8462 86.5219 22.6244 86.416 22.3971C86.3782 22.3159 86.3689 22.2224 86.3457 22.1312C86.8033 22.0547 88.5665 22.0361 89.4346 22.0941C89.6101 22.2008 89.6564 22.3994 89.7391 22.5687C90.5013 24.1301 91.2581 25.6947 92.0187 27.2569C92.0929 27.4084 92.181 27.553 92.297 27.7617C93.237 25.8276 94.146 23.957 95.0434 22.1103C95.7445 22.0392 97.7837 22.0547 98.1942 22.1289C98.2011 22.1466 98.2119 22.1644 98.2143 22.183C98.2158 22.2008 98.2112 22.2209 98.205 22.2386C98.1926 22.275 98.1787 22.3113 98.1625 22.3461C98.1207 22.4334 98.0774 22.5192 98.0334 22.6058C97.2743 24.083 96.5152 25.5602 95.7376 27.076Z" fill="white"/>
<path d="M7.14549 35.9252C5.74096 34.5137 4.3604 33.1355 2.98988 31.7464C1.55752 30.2939 0.575043 28.5794 0.199368 26.5697C-0.353323 23.6114 0.235698 20.8897 2.05919 18.4664C2.31351 18.1293 2.56396 17.7846 2.91258 17.5279C3.12051 17.5411 3.21095 17.7073 3.32845 17.824C5.79198 20.2767 8.25319 22.7325 10.7152 25.186C14.3684 28.8253 18.0223 32.4637 21.677 36.1014C21.9097 36.3326 22.1632 36.5436 22.3866 36.784C22.7206 37.1442 23.4634 37.1172 23.7803 36.8667C24.2101 36.5266 24.3709 36.0381 24.1583 35.5279C24.0787 35.337 23.9519 35.1576 23.8143 35.0007C23.5987 34.7541 23.3575 34.5292 23.1248 34.2973C18.3516 29.5387 13.5784 24.7794 8.80279 20.0224C7.57141 18.7956 6.32999 17.5797 5.09629 16.3553C4.9355 16.1961 4.75076 16.0515 4.64872 15.8096C4.73066 15.7199 4.80332 15.6333 4.88294 15.5537C8.20913 12.2708 11.5353 8.9879 14.8615 5.705C16.5111 4.07707 18.1591 2.4476 19.8079 0.819671C19.9726 0.656569 20.1333 0.488831 20.3096 0.338097C20.846 -0.118742 21.4637 -0.116425 21.9785 0.368243C22.4848 0.844407 22.9695 1.34376 23.4603 1.83616C26.1202 4.50299 28.7785 7.16982 31.4384 9.83665C31.5157 9.91395 31.6038 9.97965 31.6819 10.0469C31.8241 9.94023 31.7793 9.81655 31.7785 9.71065C31.7731 8.20331 31.7677 6.69597 31.7514 5.18941C31.7468 4.77354 31.8079 4.38317 32.0313 4.02528C32.41 3.41925 32.9674 3.10619 33.6669 3.08532C34.4964 3.06058 35.3281 3.05362 36.1567 3.08609C37.3719 3.13402 38.1843 4.08867 38.0846 5.29531C38.0668 5.50634 38.0529 5.71891 38.0544 5.93071C38.0699 7.92039 38.0931 9.91008 38.1055 11.8998C38.114 13.2912 38.1155 14.6826 38.1039 16.0732C38.1016 16.3847 38.1774 16.6228 38.41 16.8415C38.887 17.2922 39.3392 17.7691 39.803 18.2337C41.1572 19.588 42.1181 21.1718 42.5625 23.0448C43.3247 26.2581 42.6692 29.1685 40.6494 31.7727C40.4391 32.044 40.249 32.3416 39.9004 32.5364C39.7759 32.4235 39.6453 32.3145 39.5255 32.1947C37.4592 30.137 35.3961 28.0762 33.3276 26.0193C30.6577 23.364 27.9831 20.7119 25.3116 18.0582C23.7633 16.52 22.215 14.9825 20.6737 13.4373C20.4031 13.1659 20.1179 12.9696 19.7167 12.9766C18.9607 12.9897 18.432 13.6962 18.6654 14.4166C18.7288 14.6138 18.8494 14.7954 18.9646 14.9709C19.0372 15.0822 19.147 15.1688 19.2429 15.2646C22.484 18.4965 25.7229 21.7307 28.9679 24.9587C31.8295 27.8057 34.6981 30.6449 37.5628 33.4887C37.7816 33.7059 37.9942 33.9286 38.2322 34.1721C38.1658 34.2594 38.1194 34.3382 38.0568 34.4001C35.8877 36.5459 33.7164 38.6902 31.5466 40.836C28.7314 43.6196 25.9169 46.4039 23.1009 49.1867C22.9223 49.3629 22.736 49.5314 22.5474 49.6969C22.0303 50.1483 21.3284 50.0648 20.9241 49.6489C20.6018 49.3166 20.2454 49.0182 19.9177 48.6904C15.6685 44.4482 11.4217 40.2014 7.14549 35.9252Z" fill="white"/>
</svg>
