<svg width="24" height="24" viewBox="0 0 24 24" fill="none" xmlns="http://www.w3.org/2000/svg">
<path d="M15.5179 11.9988C15.5179 12.9314 15.1474 13.8258 14.4879 14.4853C13.8285 15.1447 12.9341 15.5152 12.0015 15.5152C11.0689 15.5152 10.1745 15.1447 9.51503 14.4853C8.85558 13.8258 8.48511 12.9314 8.48511 11.9988C8.48511 11.0662 8.85558 10.1718 9.51503 9.51234C10.1745 8.8529 11.0689 8.48242 12.0015 8.48242C12.9341 8.48242 13.8285 8.8529 14.4879 9.51234C15.1474 10.1718 15.5179 11.0662 15.5179 11.9988Z" fill="#FDFDFD" stroke="#FDFDFD"/>
<path d="M21.5404 4.76923C21.3396 4.26719 21.0383 3.76514 20.5363 3.3635C20.2351 2.96187 19.733 2.66064 19.231 2.45982C18.7289 2.35941 18.1265 2.15859 16.9215 2.05818C12.9342 1.91026 8.94129 2.04448 4.97283 2.45982C4.37037 2.66064 3.96873 2.96187 3.46669 3.46391C3.06505 3.76514 2.76382 4.26719 2.563 4.76923C2.36218 5.27128 2.16137 5.97415 2.06096 7.07865C1.90828 11.0995 2.0425 15.1261 2.46259 19.1278C2.66341 19.7302 2.96464 20.1319 3.46669 20.6339C3.76792 21.0356 4.26996 21.3368 4.77201 21.5376C5.27406 21.638 5.87651 21.8388 7.08143 21.9392C11.1022 22.0916 15.1288 21.9574 19.1306 21.5376C19.6743 21.3479 20.1709 21.0435 20.5867 20.6451C21.0025 20.2466 21.3278 19.7634 21.5404 19.2282C21.6408 18.7261 21.8416 18.1237 21.942 16.9188C22.0947 12.898 21.9605 8.87137 21.5404 4.86964V4.76923ZM12.0015 18.2241C10.3504 18.2241 8.76696 17.5682 7.59948 16.4007C6.43199 15.2332 5.7761 13.6498 5.7761 11.9987C5.7761 10.3476 6.43199 8.76419 7.59948 7.5967C8.76696 6.42922 10.3504 5.77333 12.0015 5.77333C13.6526 5.77333 15.236 6.42922 16.4035 7.5967C17.571 8.76419 18.2269 10.3476 18.2269 11.9987C18.2269 13.6498 17.571 15.2332 16.4035 16.4007C15.236 17.5682 13.6526 18.2241 12.0015 18.2241ZM18.5281 6.97824C18.3303 6.97824 18.1345 6.93928 17.9517 6.86359C17.769 6.7879 17.603 6.67696 17.4631 6.5371C17.3232 6.39725 17.2123 6.23121 17.1366 6.04848C17.0609 5.86574 17.022 5.66989 17.022 5.4721C17.022 5.27431 17.0609 5.07846 17.1366 4.89573C17.2123 4.71299 17.3232 4.54696 17.4631 4.4071C17.603 4.26724 17.769 4.1563 17.9517 4.08061C18.1345 4.00492 18.3303 3.96596 18.5281 3.96596C18.9276 3.96596 19.3106 4.12464 19.5931 4.4071C19.8756 4.68955 20.0342 5.07265 20.0342 5.4721C20.0342 5.87155 19.8756 6.25465 19.5931 6.5371C19.3106 6.81956 18.9276 6.97824 18.5281 6.97824Z" fill="#FDFDFD"/>
</svg>
