<svg width="68" height="84" viewBox="0 0 68 84" fill="none" xmlns="http://www.w3.org/2000/svg">
<g clip-path="url(#clip0_485_5228)">
<path d="M57.4783 83.7818V78.5645H58.3478V83.7818H57.4783Z" fill="#FDFDFD"/>
<path d="M10.6086 83.8703V78.5225H11.4782V81.8703L14.7826 78.4355V83.7834H13.913V80.479L10.6086 83.8703Z" fill="#FDFDFD"/>
<path fill-rule="evenodd" clip-rule="evenodd" d="M66.8696 59.957V75.1744H64.3479V69.3483H62.5218L58.5218 75.1744H55.4783L60 69.0875C60 69.0875 56.9565 68.131 56.9565 64.9135C56.9565 62.3997 59.0435 59.957 62 59.957H66.8696ZM64.4348 62.3918V67.2614H62.087C60.6087 67.2614 59.4236 66.0222 59.4783 64.7397C59.5336 63.4433 60.5218 62.3918 62.087 62.3918H64.4348Z" fill="#FDFDFD"/>
<path d="M41.9131 75.1744V59.957H44.3479V66.3483H50.7827V59.957H53.2174V75.1744H50.7827V68.7396H44.2609V75.1744H41.9131Z" fill="#FDFDFD"/>
<path fill-rule="evenodd" clip-rule="evenodd" d="M9.82602 7.82572C9.13037 7.82572 9.13037 7.82591 9.13037 7.82614L9.13037 7.82922L9.13039 7.83755C9.13042 7.84471 9.13046 7.85506 9.13054 7.86856C9.13071 7.89555 9.13104 7.93512 9.1317 7.98684C9.13301 8.09028 9.13562 8.24234 9.1408 8.4396C9.15116 8.83412 9.17182 9.40959 9.213 10.1388C9.29535 11.597 9.45986 13.6715 9.78861 16.1441C10.4455 21.085 11.761 27.6377 14.4002 34.0471C17.2679 41.0118 21.5153 46.7295 25.0357 50.7003C26.7975 52.6875 28.3815 54.242 29.527 55.3012C30.0999 55.8309 30.5634 56.2371 30.885 56.5119C31.0459 56.6493 31.1713 56.7539 31.2572 56.8248C31.3001 56.8602 31.3332 56.8871 31.3559 56.9055L31.3682 56.9155C31.3738 56.92 31.3784 56.9237 31.3821 56.9267L31.3893 56.9324L31.3913 56.9341L31.392 56.9346C31.3922 56.9348 31.3924 56.9349 31.826 56.391L31.3924 56.9349L31.7995 57.2595L32.2256 56.9604L31.826 56.391C32.2256 56.9604 32.2259 56.9602 32.2261 56.96L32.2269 56.9595L32.229 56.958L32.2361 56.953L32.2447 56.9468C32.2493 56.9436 32.2546 56.9398 32.2608 56.9354C32.2819 56.9201 32.3124 56.8981 32.3518 56.869C32.4305 56.811 32.545 56.7252 32.6919 56.6113C32.9859 56.3834 33.4101 56.0429 33.9394 55.5862C34.998 54.6728 36.4778 53.2946 38.1778 51.4241C41.5778 47.6829 45.8607 41.9704 49.4169 34.0678C51.6379 29.1324 52.9308 22.5617 53.6706 17.2694C54.0418 14.6145 54.2759 12.2646 54.4173 10.578C54.488 9.73444 54.5356 9.05631 54.5655 8.58829C54.5804 8.35427 54.591 8.17274 54.5978 8.04929C54.6012 7.98757 54.6037 7.94036 54.6054 7.90837L54.6072 7.87188L54.6077 7.86236L54.6078 7.85981L54.6078 7.85909C54.6078 7.85888 54.6078 7.85874 53.913 7.82572L54.6078 7.85874L54.6269 7.45788L54.2894 7.24072L53.913 7.82572C54.2894 7.24072 54.2892 7.24059 54.289 7.24044L54.2863 7.23875L54.2796 7.23445C54.2739 7.23082 54.2658 7.22566 54.2553 7.21903C54.2343 7.20577 54.2037 7.1866 54.1639 7.16193C54.0841 7.11258 53.9671 7.04117 53.8149 6.95087C53.5103 6.77029 53.0646 6.51404 52.4934 6.20738C51.3514 5.59426 49.706 4.77856 47.684 3.96318C43.6459 2.33473 38.0759 0.695313 31.9999 0.695313C25.9248 0.695312 20.2904 2.33436 16.189 3.96173C14.1352 4.77665 12.4578 5.59184 11.2918 6.20447C10.7087 6.51088 10.253 6.76689 9.94158 6.94723C9.78585 7.03741 9.66616 7.10869 9.58462 7.15793C9.54384 7.18254 9.51259 7.20165 9.49114 7.21486C9.48042 7.22146 9.47214 7.22659 9.46635 7.23019L9.45952 7.23444L9.45685 7.23611C9.45662 7.23625 9.45643 7.23637 9.82602 7.82572ZM10.5272 8.21624C10.5284 8.27269 10.5298 8.33502 10.5316 8.40308C10.5416 8.78462 10.5618 9.34609 10.6021 10.0604C10.6828 11.4892 10.8444 13.5281 11.1678 15.9608C11.8152 20.8305 13.1085 27.2561 15.6867 33.5174C18.4762 40.2919 22.6202 45.8785 26.0767 49.7773C27.8034 51.7249 29.3543 53.2465 30.4716 54.2797C31.0301 54.7961 31.48 55.1902 31.7888 55.4541C31.8093 55.4716 31.8291 55.4885 31.8483 55.5049C32.1238 55.2911 32.5259 54.9681 33.0306 54.5327C34.0507 53.6526 35.4895 52.3134 37.1482 50.4883C40.4655 46.8381 44.6609 41.2463 48.1482 33.4968C50.2843 28.7498 51.5566 22.3421 52.2927 17.0768C52.6595 14.4528 52.8911 12.1291 53.0308 10.4617C53.1007 9.62825 53.1476 8.95933 53.177 8.49953C53.1842 8.3875 53.1903 8.2879 53.1955 8.20136C53.1671 8.18437 53.137 8.16643 53.1052 8.14758C52.8163 7.97626 52.3877 7.7298 51.8353 7.4332C50.73 6.83981 49.1309 6.04682 47.1637 5.25351C43.2235 3.66458 37.837 2.08662 31.9999 2.08662C26.1621 2.08662 20.7094 3.66494 16.7022 5.25495C14.7016 6.04872 13.0693 6.84222 11.939 7.43611C11.3741 7.73296 10.9351 7.97966 10.6388 8.15123C10.599 8.17428 10.5618 8.19597 10.5272 8.21624ZM9.82602 7.82572L9.45643 7.23637L9.13037 7.44085V7.82572H9.82602Z" fill="#FDFDFD"/>
<path d="M16.4345 32.8269C11.4781 18.5661 12.1738 11.2617 12.1738 11.2617C12.1738 11.2617 18.3475 14.3052 25.0431 23.9574C28.3342 28.7016 31.9127 37.0878 31.9127 37.0878C31.9127 37.0878 35.2626 28.641 38.6084 23.9574C45.6898 14.0443 51.5651 11.3052 51.5651 11.3052C51.5651 11.3052 51.9663 20.4791 47.2171 32.8269C43.7388 41.8704 36.5214 49.9574 36.5214 49.9574L37.6518 40.9139C37.6518 40.9139 40.8303 36.1488 42.3475 32.8269C43.8689 29.4959 45.391 23.9574 45.391 23.9574C45.391 23.9574 41.5651 26.1748 38.6084 31.7835C36.8055 35.2034 36.0102 37.248 34.7823 40.9139C33.1339 45.835 31.8258 53.8704 31.8258 53.8704C31.8258 53.8704 30.5177 45.835 28.8692 40.9139C27.6413 37.248 26.7368 35.2588 25.0431 31.7835C22.5217 26.6095 18.3475 23.9574 18.3475 23.9574C18.3475 23.9574 19.9368 29.4927 21.4779 32.8269C23.0101 36.1419 26.1736 40.9139 26.1736 40.9139L27.304 49.9574C27.304 49.9574 19.2612 40.9602 16.4345 32.8269Z" fill="#FDFDFD"/>
<path fill-rule="evenodd" clip-rule="evenodd" d="M0.0869141 59.9121V75.1295H5.913C8.86952 75.1295 10.6087 72.6512 10.6087 70.3034C10.6087 67.9556 8.43474 65.9991 6.60865 65.9991H2.5217V62.3034H9.73909V59.9121H0.0869141ZM2.5217 68.173V72.7817H5.73909C6.95648 72.7817 8.21626 71.6854 8.26083 70.4338C8.30358 69.2331 7.04344 68.173 5.99996 68.173H2.5217Z" fill="#FDFDFD"/>
<path fill-rule="evenodd" clip-rule="evenodd" d="M12.4348 75.1738V59.9129H16.9566C20.9566 59.9129 22.6957 62.3477 22.8696 64.7825C23.0435 67.2173 20.6087 69.8695 17.9131 69.8695H14.8696V75.1738H12.4348ZM14.8696 67.4347V62.3477H17.6522C19.0435 62.3477 20.3479 63.3912 20.4348 64.7825C20.5218 66.1738 19.3913 67.4347 17.6522 67.4347H14.8696Z" fill="#FDFDFD"/>
<path fill-rule="evenodd" clip-rule="evenodd" d="M31.8261 72.9127C34.8036 72.9127 37.2174 70.4989 37.2174 67.5214C37.2174 64.5439 34.8036 62.1301 31.8261 62.1301C28.8486 62.1301 26.4348 64.5439 26.4348 67.5214C26.4348 70.4989 28.8486 72.9127 31.8261 72.9127ZM31.8261 75.3475C36.1483 75.3475 39.6522 71.8436 39.6522 67.5214C39.6522 63.1992 36.1483 59.6953 31.8261 59.6953C27.5039 59.6953 24 63.1992 24 67.5214C24 71.8436 27.5039 75.3475 31.8261 75.3475Z" fill="#FDFDFD"/>
<ellipse cx="31.826" cy="67.5225" rx="2.08696" ry="2.08696" fill="#FDFDFD"/>
<path d="M31.9999 3.21678C21.6521 2.99938 12.8015 8.91965 12.8015 8.91965C12.8015 8.91965 15.826 9.30374 23.5651 18.9994C28.8489 25.619 31.9129 32.7385 31.9129 32.7385C31.9129 32.7385 35.4215 25.5351 38.3477 21.4342C40.9515 17.7851 45.739 12.6516 45.739 12.6516C38.7926 8.86263 31.2173 7.86896 25.0434 13.1733C25.0434 13.1733 26.4828 14.4386 27.3043 15.3472C28.1152 16.2442 29.3043 17.869 29.3043 17.869C29.3043 17.869 32.6956 11.4777 37.913 12.9124C40.6699 13.6706 33.2185 22.456 31.9129 23.8255C31.9129 23.8255 30.1738 20.1298 27.4782 16.9994C24.8924 13.9966 20.4347 9.69505 20.4347 9.69505C20.4347 9.69505 25.2173 7.26026 32.3477 7.26026C40.5227 7.26026 47.0434 11.0429 47.0434 11.0429L51.0434 8.52113C51.0434 8.52113 42.3477 3.43418 31.9999 3.21678Z" fill="#FDFDFD"/>
<path d="M0.0869141 78.2617V83.7834H0.956479V81.0008L2.60865 83.6965L4.26083 81.0008V83.7834H5.13039V78.2617L2.60865 82.1313L0.0869141 78.2617Z" fill="#FDFDFD"/>
<path d="M20.261 83.7824V78.5215H21.1306V80.9128L22.7827 78.5215H23.8262L22.0001 81.1737L24.0437 83.7824H23.0319L21.1306 81.391V83.7824H20.261Z" fill="#FDFDFD"/>
<path fill-rule="evenodd" clip-rule="evenodd" d="M30.9566 83.7389C32.3973 83.7389 33.5653 82.5709 33.5653 81.1302C33.5653 79.6894 32.3973 78.5215 30.9566 78.5215C29.5159 78.5215 28.3479 79.6894 28.3479 81.1302C28.3479 82.5709 29.5159 83.7389 30.9566 83.7389ZM30.9566 82.9563C31.9651 82.9563 32.7827 82.1387 32.7827 81.1302C32.7827 80.1217 31.9651 79.3041 30.9566 79.3041C29.9481 79.3041 29.1305 80.1217 29.1305 81.1302C29.1305 82.1387 29.9481 82.9563 30.9566 82.9563Z" fill="#FDFDFD"/>
<path d="M40.4348 78.3906L37.9131 83.7819H38.8696L40.4348 80.3906L42 83.7819H42.9566L40.4348 78.3906Z" fill="#FDFDFD"/>
<path fill-rule="evenodd" clip-rule="evenodd" d="M47.4521 83.7819L49.9739 78.3906L52.4956 83.7819H51.5391L51.1779 82.9993H48.7699L48.4087 83.7819H47.4521ZM49.1311 82.2167H50.8167L49.9739 80.3906L49.1311 82.2167Z" fill="#FDFDFD"/>
<path fill-rule="evenodd" clip-rule="evenodd" d="M63.8262 83.7818V78.5645H64.9566C65.9687 78.5645 66.5155 78.9741 66.6957 79.6949C66.8697 80.3905 66.261 80.8253 66.261 80.8253C66.261 80.8253 67.41 80.9992 67.3914 82.3036C67.3801 83.0963 66.5218 83.7818 65.7392 83.7818H63.8262ZM64.6957 80.6515V79.4341H65.3914C65.7391 79.4341 65.9064 79.6586 65.9131 80.0428C65.919 80.3823 65.7391 80.6515 65.3044 80.6515H64.6957ZM64.6957 81.434V82.9123H65.3914C65.826 82.9123 66.5218 82.9123 66.5218 82.1296C66.5218 81.434 65.8261 81.434 65.4783 81.434H64.6957Z" fill="#FDFDFD"/>
<path d="M31.826 0.173828C19.913 0.173828 9.13037 6.86948 9.13037 6.86948L9.21733 9.17383C9.21733 9.17383 20.4347 2.31786 31.826 2.26078C43.2173 2.20371 54.5217 9.17383 54.5217 9.17383L54.6086 7.47818C54.6086 7.47818 43.7391 0.173828 31.826 0.173828Z" fill="#FDFDFD"/>
</g>
<defs>
<clipPath id="clip0_485_5228">
<rect width="67.4783" height="84" fill="white"/>
</clipPath>
</defs>
</svg>
