<svg width="109" height="145" viewBox="0 0 109 145" fill="none" xmlns="http://www.w3.org/2000/svg">
<path fill-rule="evenodd" clip-rule="evenodd" d="M2.44644 -14.9553C0 -14.9553 0 -14.9547 2.91638e-07 -14.954L1.16655e-05 -14.944L8.16586e-05 -14.9172C0.000159526 -14.8941 0.000311469 -14.8607 0.000607482 -14.8172C0.0011998 -14.7302 0.00236883 -14.6026 0.00467641 -14.4358C0.00929158 -14.1023 0.0184611 -13.6121 0.0366796 -12.976C0.0731149 -11.704 0.145754 -9.84858 0.290584 -7.49738C0.580196 -2.79574 1.15874 3.89261 2.31487 11.865C4.62505 27.7955 9.25116 48.9228 18.5325 69.5883C28.6178 92.0437 43.5546 110.479 55.935 123.282C62.1309 129.689 67.7015 134.701 71.7299 138.116C73.7445 139.824 75.3746 141.133 76.5058 142.02C77.0714 142.463 77.5124 142.8 77.8145 143.028C77.9656 143.142 78.0819 143.229 78.1617 143.289L78.2049 143.321C78.2246 143.335 78.2409 143.347 78.2539 143.357L78.279 143.375L78.2862 143.381L78.2885 143.382C78.2893 143.383 78.2899 143.383 79.815 141.63L78.2899 143.383L79.7216 144.43L81.2203 143.466L79.815 141.63C81.2203 143.466 81.2211 143.465 81.2221 143.464L81.2247 143.463L81.2323 143.458L81.257 143.442L81.2875 143.422C81.3036 143.411 81.3223 143.399 81.3439 143.385C81.4183 143.336 81.5254 143.265 81.6639 143.171C81.9409 142.984 82.3433 142.707 82.8602 142.34C83.8939 141.605 85.3857 140.507 87.2473 139.035C90.9702 136.09 96.174 131.646 102.153 125.615C114.11 113.553 129.172 95.1347 141.678 69.6547C149.488 53.7419 154.035 32.5568 156.637 15.4932C157.942 6.93323 158.766 -0.643501 159.263 -6.08152C159.512 -8.80119 159.679 -10.9876 159.784 -12.4966C159.837 -13.2512 159.874 -13.8365 159.898 -14.2345C159.91 -14.4335 159.919 -14.5857 159.924 -14.6888L159.931 -14.8065L159.932 -14.8372L159.933 -14.8454L159.933 -14.8477C159.933 -14.8484 159.933 -14.8489 157.489 -14.9553L159.933 -14.8489L160 -16.1413L158.813 -16.8415L157.489 -14.9553C158.813 -16.8415 158.812 -16.8419 158.812 -16.8424L158.802 -16.8479L158.779 -16.8617C158.759 -16.8734 158.73 -16.89 158.693 -16.9114C158.619 -16.9542 158.512 -17.016 158.372 -17.0955C158.091 -17.2547 157.68 -17.4849 157.144 -17.776C156.073 -18.3582 154.506 -19.1845 152.497 -20.1732C148.481 -22.15 142.694 -24.78 135.584 -27.409C121.383 -32.6595 101.794 -37.9453 80.4266 -37.9453C59.0617 -37.9453 39.2472 -32.6607 24.8235 -27.4137C17.6007 -24.7862 11.7017 -22.1578 7.60138 -20.1826C5.5506 -19.1946 3.94799 -18.3692 2.8528 -17.7878C2.30516 -17.497 1.88425 -17.2672 1.59746 -17.1084C1.45407 -17.0291 1.34419 -16.9675 1.26875 -16.9249C1.23103 -16.9036 1.20192 -16.8871 1.18154 -16.8755L1.15752 -16.8617L1.14815 -16.8564C1.14734 -16.8559 1.14668 -16.8555 2.44644 -14.9553ZM4.91219 -13.6962C4.91642 -13.5142 4.92158 -13.3132 4.92787 -13.0938C4.9631 -11.8636 5.03381 -10.0533 5.17567 -7.75031C5.45944 -3.14349 6.02766 3.43053 7.16507 11.2738C9.44196 26.9748 13.99 47.6923 23.0569 67.8803C32.8669 89.7228 47.4403 107.735 59.5962 120.306C65.6684 126.585 71.1225 131.491 75.0518 134.822C77.016 136.488 78.598 137.758 79.6842 138.609C79.7561 138.665 79.8259 138.72 79.8934 138.773C80.8622 138.083 82.2763 137.042 84.0511 135.638C87.6388 132.8 92.6985 128.483 98.5317 122.598C110.198 110.829 124.952 92.7999 137.216 67.8138C144.728 52.5084 149.203 31.8487 151.791 14.8721C153.081 6.41192 153.896 -1.08033 154.387 -6.45625C154.633 -9.14356 154.798 -11.3003 154.901 -12.7828C154.926 -13.144 154.948 -13.4652 154.966 -13.7442C154.866 -13.799 154.76 -13.8568 154.649 -13.9176C153.633 -14.47 152.125 -15.2646 150.183 -16.2209C146.296 -18.1341 140.672 -20.6909 133.754 -23.2487C119.897 -28.3717 100.954 -33.4594 80.4266 -33.4594C59.8962 -33.4594 40.7207 -28.3706 26.6281 -23.244C19.5928 -20.6848 13.8521 -18.1263 9.87726 -16.2115C7.89046 -15.2544 6.34664 -14.459 5.30477 -13.9058C5.16479 -13.8315 5.03389 -13.7616 4.91219 -13.6962ZM2.44644 -14.9553L1.14668 -16.8555L0 -16.1962V-14.9553H2.44644Z" fill="#BCBCBC" fill-opacity="0.16"/>
<path d="M25.6866 65.6482C8.25625 19.668 10.703 -3.88281 10.703 -3.88281C10.703 -3.88281 32.4143 5.93003 55.9613 37.0507C67.535 52.3471 80.1198 79.3861 80.1198 79.3861C80.1198 79.3861 91.9004 52.1519 103.667 37.0507C128.571 5.08893 149.233 -3.74266 149.233 -3.74266C149.233 -3.74266 150.643 25.8361 133.941 65.6482C121.709 94.8063 96.3275 120.88 96.3275 120.88L100.303 91.7223C100.303 91.7223 111.481 76.3585 116.816 65.6482C122.167 54.9082 127.52 37.0507 127.52 37.0507C127.52 37.0507 114.065 44.2001 103.667 62.2838C97.3264 73.3104 94.5298 79.9027 90.2114 91.7223C84.4143 107.589 79.814 133.497 79.814 133.497C79.814 133.497 75.2137 107.589 69.4167 91.7223C65.0983 79.9027 61.9175 73.489 55.9613 62.2838C47.0938 45.6019 32.4143 37.0507 32.4143 37.0507C32.4143 37.0507 38.0037 54.8977 43.4233 65.6482C48.8116 76.3364 59.9367 91.7223 59.9367 91.7223L63.9122 120.88C63.9122 120.88 35.6275 91.8715 25.6866 65.6482Z" fill="#BCBCBC" fill-opacity="0.16"/>
<path d="M80.4266 -29.8151C44.0359 -30.5161 12.9106 -11.4279 12.9106 -11.4279C12.9106 -11.4279 23.547 -10.1895 50.7636 21.0715C69.3453 42.4144 80.1208 65.3694 80.1208 65.3694C80.1208 65.3694 92.4596 42.1441 102.75 28.9217C111.907 17.1563 128.744 0.604662 128.744 0.604662C104.315 -11.6117 77.6744 -14.8155 55.9623 2.28688C55.9623 2.28688 61.0245 6.3665 63.9132 9.29606C66.765 12.1882 70.9467 17.4267 70.9467 17.4267C70.9467 17.4267 82.873 -3.1803 101.221 1.44576C110.917 3.89027 84.7121 32.2163 80.1208 36.6318C80.1208 36.6318 74.0047 24.7162 64.5248 14.623C55.4313 4.94131 39.7546 -8.92781 39.7546 -8.92781C39.7546 -8.92781 56.5739 -16.7781 81.6498 -16.7781C110.399 -16.7781 133.331 -4.58214 133.331 -4.58214L147.398 -12.7128C147.398 -12.7128 116.817 -29.1142 80.4266 -29.8151Z" fill="#BCBCBC" fill-opacity="0.16"/>
</svg>
