<svg width="230" height="245" viewBox="0 0 230 245" fill="none" xmlns="http://www.w3.org/2000/svg">
<path fill-rule="evenodd" clip-rule="evenodd" d="M-29.591 43.9675C-33.6089 43.9675 -33.6089 43.9686 -33.6089 43.9699L-33.6089 43.9876L-33.6088 44.0355C-33.6086 44.0766 -33.6084 44.1361 -33.6079 44.2136C-33.6069 44.3687 -33.605 44.5961 -33.6012 44.8933C-33.5936 45.4876 -33.5786 46.3613 -33.5486 47.4947C-33.4888 49.7615 -33.3695 53.068 -33.1316 57.258C-32.656 65.6366 -31.7058 77.5556 -29.807 91.7629C-26.0129 120.152 -18.4151 157.802 -3.17176 194.629C13.3919 234.646 37.9234 267.498 58.2566 290.314C68.4325 301.732 77.5814 310.663 84.1975 316.749C87.5062 319.793 90.1834 322.126 92.0412 323.706C92.9702 324.495 93.6945 325.096 94.1906 325.503C94.4387 325.707 94.6297 325.861 94.7609 325.967L94.8317 326.024C94.8641 326.05 94.8909 326.072 94.9122 326.089L94.9535 326.122L94.9654 326.131L94.9691 326.134C94.9704 326.135 94.9714 326.136 97.4761 323.011L94.9714 326.136L97.3227 328.001L99.7841 326.282L97.4761 323.011C99.7841 326.282 99.7855 326.281 99.7871 326.28L99.7914 326.277L99.8039 326.269L99.8445 326.24L99.8946 326.204C99.9209 326.186 99.9518 326.164 99.9871 326.139C100.109 326.051 100.285 325.924 100.513 325.758C100.968 325.424 101.629 324.931 102.477 324.277C104.175 322.967 106.625 321.01 109.683 318.386C115.797 313.139 124.344 305.22 134.163 294.472C153.8 272.977 178.537 240.154 199.077 194.747C211.905 166.39 219.372 128.637 223.646 98.2284C225.789 82.9741 227.142 69.472 227.958 59.7811C228.367 54.9345 228.641 51.0381 228.814 48.349C228.901 47.0044 228.961 45.9614 229.001 45.2521C229.021 44.8974 229.035 44.6262 229.045 44.4424L229.055 44.2327L229.058 44.178L229.059 44.1634L229.059 44.1592C229.059 44.158 229.059 44.1572 225.045 43.9675L229.059 44.1572L229.169 41.854L227.22 40.6062L225.045 43.9675C227.22 40.6062 227.219 40.6055 227.217 40.6047L227.202 40.5949L227.163 40.5702C227.13 40.5494 227.083 40.5197 227.023 40.4816C226.901 40.4054 226.725 40.2953 226.494 40.1535C226.034 39.8699 225.358 39.4597 224.479 38.9409C222.72 37.9033 220.145 36.4309 216.846 34.669C210.25 31.1461 200.747 26.4593 189.068 21.7743C165.745 12.4177 133.574 2.99805 98.4806 2.99805C63.3918 2.99804 30.8492 12.4156 7.16032 21.766C-4.70216 26.4484 -14.3905 31.1322 -21.1247 34.6522C-24.4928 36.4128 -27.1249 37.8837 -28.9236 38.9199C-29.823 39.4381 -30.5143 39.8476 -30.9853 40.1305C-31.2208 40.272 -31.4012 40.3818 -31.5251 40.4576C-31.5871 40.4956 -31.6349 40.525 -31.6684 40.5457L-31.7078 40.5702L-31.7232 40.5797C-31.7245 40.5806 -31.7256 40.5812 -29.591 43.9675ZM-25.5413 46.2113C-25.5343 46.5356 -25.5259 46.8938 -25.5156 47.2848C-25.4577 49.4771 -25.3416 52.7031 -25.1086 56.8072C-24.6425 65.0168 -23.7093 76.7321 -21.8413 90.7093C-18.1018 118.689 -10.6323 155.609 4.25882 191.585C20.3704 230.51 44.3052 262.609 64.2695 285.01C74.2423 296.2 83.2 304.943 89.6532 310.88C92.8792 313.847 95.4774 316.112 97.2613 317.628C97.3794 317.728 97.494 317.825 97.605 317.919C99.1961 316.691 101.519 314.835 104.433 312.334C110.326 307.277 118.636 299.582 128.216 289.096C147.376 268.123 171.607 235.993 191.749 191.467C204.087 164.192 211.436 127.375 215.687 97.1216C217.806 82.0451 219.143 68.6935 219.95 59.1133C220.354 54.3244 220.625 50.4809 220.795 47.839C220.836 47.1953 220.871 46.623 220.901 46.1258C220.737 46.0282 220.563 45.9251 220.38 45.8168C218.711 44.8325 216.236 43.4163 213.045 41.7122C206.661 38.3027 197.425 33.7464 186.063 29.1883C163.306 20.0587 132.194 10.9921 98.4806 10.9921C64.7624 10.9921 33.2691 20.0608 10.124 29.1966C-1.4305 33.7573 -10.8587 38.3166 -17.3869 41.7289C-20.6499 43.4345 -23.1854 44.852 -24.8965 45.8378C-25.1264 45.9702 -25.3414 46.0948 -25.5413 46.2113ZM-29.591 43.9675L-31.7256 40.5812L-33.6089 41.7561V43.9675H-29.591Z" fill="#BCBCBC" fill-opacity="0.16"/>
<path d="M8.57789 187.611C-20.0491 105.672 -16.0306 63.7031 -16.0306 63.7031C-16.0306 63.7031 19.6272 81.1901 58.2998 136.649C77.308 163.908 97.9768 212.093 97.9768 212.093C97.9768 212.093 117.325 163.56 136.649 136.649C177.55 79.6913 211.485 63.9529 211.485 63.9529C211.485 63.9529 213.802 116.664 186.371 187.611C166.282 239.573 124.596 286.038 124.596 286.038L131.125 234.077C131.125 234.077 149.483 206.698 158.246 187.611C167.033 168.472 175.824 136.649 175.824 136.649C175.824 136.649 153.727 149.389 136.649 181.616C126.236 201.266 121.643 213.014 114.551 234.077C105.03 262.352 97.4746 308.521 97.4746 308.521C97.4746 308.521 89.9193 262.352 80.3984 234.077C73.3061 213.014 68.0821 201.584 58.2998 181.616C43.7363 151.888 19.6272 136.649 19.6272 136.649C19.6272 136.649 28.8069 168.453 37.7079 187.611C46.5574 206.658 64.8289 234.077 64.8289 234.077L71.358 286.038C71.358 286.038 24.9044 234.343 8.57789 187.611Z" fill="#BCBCBC" fill-opacity="0.16"/>
<path d="M98.4806 17.4887C38.7139 16.2395 -12.405 50.2558 -12.405 50.2558C-12.405 50.2558 5.06372 52.4627 49.7632 108.171C80.2811 146.206 97.9784 187.113 97.9784 187.113C97.9784 187.113 118.243 145.724 135.144 122.161C150.183 101.194 177.835 71.6984 177.835 71.6984C137.714 49.9282 93.9605 44.2189 58.3013 74.6963C58.3013 74.6963 66.6153 81.9664 71.3596 87.187C76.0434 92.341 82.9111 101.676 82.9111 101.676C82.9111 101.676 102.499 64.9534 132.633 73.1973C148.557 77.5536 105.519 128.032 97.9784 135.901C97.9784 135.901 87.9336 114.667 72.3641 96.6799C57.4294 79.4266 31.6825 54.7111 31.6825 54.7111C31.6825 54.7111 59.3058 40.7214 100.49 40.7214C147.706 40.7214 185.368 62.4553 185.368 62.4553L208.471 47.966C208.471 47.966 158.247 18.7378 98.4806 17.4887Z" fill="#BCBCBC" fill-opacity="0.16"/>
<path d="M97.4761 0C28.669 0 -33.6089 38.4715 -33.6089 38.4715L-33.1066 51.7116C-33.1066 51.7116 31.6825 12.319 97.4761 11.9911C163.27 11.6632 228.561 51.7116 228.561 51.7116L229.063 41.9689C229.063 41.9689 166.283 0 97.4761 0Z" fill="#BCBCBC" fill-opacity="0.16"/>
</svg>
