<svg width="39" height="48" viewBox="0 0 39 48" fill="none" xmlns="http://www.w3.org/2000/svg">
<path fill-rule="evenodd" clip-rule="evenodd" d="M0.667375 6.41924C0.0742188 6.41924 0.0742188 6.4194 0.0742188 6.41959L0.0742216 6.42217L0.0742385 6.42916C0.0742574 6.43517 0.0742943 6.44385 0.074366 6.45518C0.0745096 6.47782 0.0747931 6.51102 0.0753526 6.55441C0.0764716 6.64118 0.0786948 6.76874 0.083112 6.93423C0.091946 7.26519 0.109558 7.74796 0.144673 8.35972C0.214891 9.58303 0.355164 11.3233 0.635476 13.3976C1.1956 17.5425 2.31723 23.0396 4.56756 28.4165C7.01281 34.2592 10.6343 39.0559 13.6361 42.387C15.1383 44.0541 16.4889 45.3581 17.4656 46.2467C17.9541 46.6911 18.3493 47.0318 18.6236 47.2624C18.7607 47.3777 18.8677 47.4654 18.9409 47.5248C18.9775 47.5545 19.0057 47.5771 19.0251 47.5926L19.0355 47.6009C19.0403 47.6047 19.0443 47.6079 19.0474 47.6103L19.0535 47.6151L19.0553 47.6165L19.0558 47.617C19.056 47.6171 19.0562 47.6172 19.4259 47.1609L19.0562 47.6172L19.4033 47.8895L19.7667 47.6386L19.4259 47.1609C19.7667 47.6386 19.7669 47.6385 19.7671 47.6383L19.7677 47.6379L19.7696 47.6366L19.7756 47.6324L19.783 47.6272C19.7868 47.6245 19.7914 47.6213 19.7966 47.6176C19.8147 47.6048 19.8406 47.5863 19.8742 47.562C19.9414 47.5133 20.0389 47.4413 20.1643 47.3457C20.4149 47.1546 20.7766 46.8689 21.2279 46.4858C22.1306 45.7196 23.3923 44.5634 24.8418 42.9941C27.7409 39.8557 31.3928 35.0634 34.425 28.4338C36.3187 24.2935 37.4211 18.7814 38.052 14.3416C38.3684 12.1144 38.5681 10.143 38.6886 8.72811C38.7489 8.02048 38.7895 7.45159 38.815 7.05897C38.8277 6.86264 38.8367 6.71036 38.8426 6.6068C38.8455 6.55502 38.8476 6.51542 38.849 6.48858L38.8506 6.45797L38.851 6.44998L38.8511 6.44784L38.8511 6.44723C38.8511 6.44706 38.8511 6.44694 38.2586 6.41924L38.8511 6.44694L38.8674 6.11066L38.5796 5.92848L38.2586 6.41924C38.5796 5.92848 38.5794 5.92837 38.5792 5.92825L38.577 5.92682L38.5712 5.92322C38.5664 5.92017 38.5595 5.91585 38.5505 5.91029C38.5326 5.89916 38.5065 5.88308 38.4725 5.86238C38.4046 5.82098 38.3048 5.76108 38.175 5.68533C37.9153 5.53384 37.5352 5.31887 37.0482 5.06161C36.0744 4.54725 34.6715 3.86296 32.9474 3.17893C29.5043 1.81281 24.755 0.4375 19.5742 0.4375C14.3942 0.4375 9.58999 1.81251 6.09286 3.17772C4.34164 3.86136 2.91138 4.54523 1.91723 5.05917C1.42 5.31622 1.03144 5.53098 0.765902 5.68227C0.633122 5.75792 0.531068 5.81772 0.461535 5.85902C0.426767 5.87968 0.400126 5.89571 0.381836 5.90678C0.372691 5.91232 0.365634 5.91662 0.360691 5.91964L0.354868 5.92321L0.352595 5.92461C0.3524 5.92473 0.352238 5.92483 0.667375 6.41924ZM1.26522 6.74685C1.26624 6.7942 1.26749 6.84649 1.26901 6.90359C1.27756 7.22367 1.2947 7.69469 1.3291 8.29391C1.3979 9.49255 1.53567 11.203 1.81144 13.2438C2.36349 17.329 3.46619 22.7195 5.66452 27.9721C8.04303 33.6553 11.5764 38.342 14.5237 41.6127C15.996 43.2465 17.3184 44.523 18.2711 45.3897C18.7473 45.823 19.1309 46.1536 19.3942 46.375C19.4117 46.3897 19.4286 46.4038 19.4449 46.4175C19.6798 46.2382 20.0227 45.9673 20.453 45.602C21.3229 44.8637 22.5496 43.7402 23.9639 42.2091C26.7925 39.147 30.3697 34.4559 33.3432 27.9549C35.1646 23.9726 36.2495 18.5971 36.8771 14.18C37.1899 11.9788 37.3873 10.0294 37.5065 8.6306C37.566 7.9314 37.606 7.37023 37.6311 6.9845C37.6372 6.89052 37.6424 6.80696 37.6468 6.73437C37.6226 6.72011 37.597 6.70506 37.5699 6.68925C37.3235 6.54553 36.9581 6.33877 36.4871 6.08995C35.5446 5.59215 34.1811 4.92691 32.5038 4.2614C29.1442 2.92844 24.5513 1.60467 19.5742 1.60467C14.5965 1.60467 9.94723 2.92874 6.53039 4.26261C4.82462 4.92851 3.43276 5.59418 2.46903 6.09239C1.98732 6.34142 1.61301 6.54838 1.3604 6.69231C1.32646 6.71165 1.29472 6.72984 1.26522 6.74685ZM0.667375 6.41924L0.352238 5.92483L0.0742188 6.09637V6.41924H0.667375Z" fill="#231F20"/>
<path d="M6.30201 27.392C2.07589 15.4284 2.66913 9.30078 2.66913 9.30078C2.66913 9.30078 7.93319 11.854 13.6423 19.9512C16.4484 23.9312 19.4997 30.9664 19.4997 30.9664C19.4997 30.9664 22.356 23.8804 25.2089 19.9512C31.247 11.6351 36.2566 9.33725 36.2566 9.33725C36.2566 9.33725 36.5986 17.0333 32.5492 27.392C29.5834 34.9786 23.4294 41.7628 23.4294 41.7628L24.3933 34.1762C24.3933 34.1762 27.1034 30.1787 28.3971 27.392C29.6943 24.5975 30.9921 19.9512 30.9921 19.9512C30.9921 19.9512 27.73 21.8114 25.2089 26.5166C23.6716 29.3856 22.9935 31.1008 21.9465 34.1762C20.541 38.3045 19.4256 45.0455 19.4256 45.0455C19.4256 45.0455 18.3102 38.3045 16.9047 34.1762C15.8577 31.1008 15.0865 29.4321 13.6423 26.5166C11.4923 22.1762 7.93319 19.9512 7.93319 19.9512C7.93319 19.9512 9.28836 24.5948 10.6024 27.392C11.9088 30.1729 14.6062 34.1762 14.6062 34.1762L15.5701 41.7628C15.5701 41.7628 8.71225 34.215 6.30201 27.392Z" fill="#231F20"/>
<path d="M19.5743 2.55275C10.7511 2.37038 3.20459 7.33692 3.20459 7.33692C3.20459 7.33692 5.78344 7.65914 12.3823 15.7929C16.8876 21.3461 19.5002 27.3187 19.5002 27.3187C19.5002 27.3187 22.4918 21.2758 24.9869 17.8354C27.207 14.7742 31.2892 10.4677 31.2892 10.4677C25.3662 7.28909 18.907 6.4555 13.6428 10.9053C13.6428 10.9053 14.8701 11.9668 15.5705 12.7291C16.262 13.4816 17.2758 14.8446 17.2758 14.8446C17.2758 14.8446 20.1675 9.48284 24.6161 10.6865C26.9669 11.3225 20.6134 18.6926 19.5002 19.8415C19.5002 19.8415 18.0173 16.7412 15.7188 14.1151C13.514 11.596 9.7131 7.98741 9.7131 7.98741C9.7131 7.98741 13.791 5.94485 19.8709 5.94485C26.8414 5.94485 32.4013 9.1181 32.4013 9.1181L35.812 7.0026C35.812 7.0026 28.3975 2.73513 19.5743 2.55275Z" fill="#EE1D23"/>
<path d="M19.4259 0C9.26814 0 0.0742188 5.61702 0.0742188 5.61702L0.148363 7.55015C0.148363 7.55015 9.713 1.79864 19.4259 1.75076C29.1389 1.70288 38.7776 7.55015 38.7776 7.55015L38.8518 6.12766C38.8518 6.12766 29.5837 0 19.4259 0Z" fill="#231F20"/>
</svg>
