<svg width="24" height="24" viewBox="0 0 24 24" fill="none" xmlns="http://www.w3.org/2000/svg">
<path d="M12 11C14.2091 11 16 9.20914 16 7C16 4.79086 14.2091 3 12 3C9.79086 3 8 4.79086 8 7C8 9.20914 9.79086 11 12 11Z" stroke="#231F20" stroke-width="1.5" stroke-linecap="round" stroke-linejoin="round"/>
<path d="M16.4997 21.1425C17.8877 20.8927 18.9881 20.512 19.4997 20.0004C19.5716 19.3535 19.4997 18.3337 19.4997 18.3337C19.4997 17.4497 19.0783 16.6018 18.3282 15.9767C15.9592 14.0026 8.04025 14.0026 5.6713 15.9767C4.92115 16.6018 4.49973 17.4497 4.49973 18.3337C4.49973 18.3337 4.42785 19.3535 4.49973 20.0004C5.01129 20.512 6.1117 20.8927 7.49972 21.1425" stroke="#231F20" stroke-width="1.5" stroke-linecap="round" stroke-linejoin="round"/>
</svg>
