<svg width="176" height="93" viewBox="0 0 176 93" fill="none" xmlns="http://www.w3.org/2000/svg">
<path d="M59.823 71.1541C61.0062 75.5697 58.3591 80.1511 53.9406 81.3351L21.8061 89.9455C17.3876 91.1294 12.8044 88.4853 11.6212 84.0697L3.01644 51.9561C1.83327 47.5405 4.48037 42.9591 8.89886 41.7751L41.0334 33.1647C45.4519 31.9808 50.035 34.6249 51.2182 39.0405L59.823 71.1541Z" fill="white"/>
<path d="M16.793 50.8833L30.458 47.2218C32.9784 46.5464 35.1565 46.5786 36.9866 47.3284C38.8167 48.0781 40.0468 49.6129 40.6732 51.9506C41.0528 53.3673 41.031 54.6723 40.6079 55.8655C40.1847 57.0587 39.4033 58.1117 38.2592 59.0088L38.2803 59.0875C40.1122 58.9932 41.6468 59.4593 42.8764 60.4881C44.108 61.5247 44.983 62.9943 45.4976 64.9148C45.7929 66.0168 45.8722 67.1006 45.7336 68.1585C45.5971 69.2243 45.2042 70.2154 44.5471 71.1338C43.8899 72.0523 42.9664 72.8903 41.7608 73.652C40.5551 74.4137 39.0505 75.0362 37.239 75.5216L24.3222 78.9827L16.793 50.8833ZM24.8685 61.3314L32.9021 59.1788C34.0836 58.8622 34.9795 58.2679 35.5857 57.3799C36.192 56.492 36.3285 55.4262 35.991 54.1668C35.6114 52.7501 34.9891 51.8454 34.1263 51.4608C33.2635 51.0761 32.1616 51.0593 30.8227 51.418L22.789 53.5706L24.8685 61.3314ZM28.1691 73.6495L36.8722 71.3175C38.3687 70.9165 39.431 70.2185 40.0413 69.2198C40.6616 68.2269 40.7838 67.0131 40.4042 65.5963C40.0309 64.2031 39.3366 63.2503 38.2993 62.7184C37.262 62.1865 36.015 62.1325 34.5186 62.5335L25.8155 64.8655L28.1691 73.6495Z" fill="#121212"/>
<path d="M75.1375 50.5568C76.0222 50.6051 76.7874 50.8807 77.4331 51.3836C78.0751 51.8724 78.52 52.5792 78.7678 53.5041C79.1095 54.7793 78.8834 55.8987 78.0896 56.8624C77.292 57.8121 75.9537 58.5386 74.0747 59.0421L66.7551 61.0034L62.8125 46.2896L69.7115 44.441C71.4503 43.9751 72.8814 43.9596 74.0049 44.3945C75.1246 44.8154 75.844 45.6214 76.1632 46.8125C76.3584 47.5412 76.3629 48.2309 76.1766 48.8816C75.9902 49.5323 75.6439 50.0907 75.1375 50.5568ZM66.1213 47.7009L67.2084 51.7577L71.0785 50.7207C72.032 50.4652 72.7161 50.1017 73.1308 49.6301C73.5558 49.1408 73.68 48.5668 73.5036 47.9081C73.3233 47.2355 72.9287 46.8006 72.3198 46.6033C71.7211 46.3882 70.945 46.4084 69.9915 46.6639L66.1213 47.7009ZM73.332 56.9432C75.4493 56.3758 76.3184 55.3845 75.9392 53.9692C75.5599 52.5538 74.3116 52.1298 72.1943 52.6972L67.7772 53.8807L68.9149 58.1267L73.332 56.9432Z" fill="white"/>
<path d="M87.5912 55.5781C86.4554 55.8824 85.366 55.9115 84.3232 55.6652C83.2803 55.419 82.3831 54.931 81.6314 54.2012C80.8901 53.4536 80.3711 52.5263 80.0745 51.4193C79.7778 50.3122 79.7655 49.2567 80.0375 48.2526C80.3235 47.2447 80.8566 46.3735 81.6366 45.6388C82.4166 44.9041 83.3746 44.3846 84.5104 44.0803C85.6602 43.7722 86.7565 43.7412 87.7994 43.9875C88.8423 44.2337 89.7325 44.7236 90.4701 45.4572C91.2218 46.187 91.7459 47.1054 92.0425 48.2124C92.3391 49.3195 92.3463 50.3839 92.064 51.4058C91.792 52.4098 91.266 53.2792 90.486 54.0139C89.706 54.7486 88.741 55.27 87.5912 55.5781ZM86.9885 53.329C87.9561 53.0697 88.669 52.5332 89.1273 51.7196C89.5856 50.9059 89.6739 49.9735 89.3923 48.9225C89.1107 47.8716 88.568 47.1083 87.7643 46.6328C86.9606 46.1572 86.0749 46.0491 85.1074 46.3084C84.1398 46.5676 83.4269 47.1041 82.9686 47.9178C82.5244 48.7277 82.4431 49.6581 82.7247 50.7091C83.0063 51.7601 83.5419 52.5253 84.3316 53.0045C85.1354 53.4801 86.021 53.5882 86.9885 53.329Z" fill="white"/>
<path d="M101.148 51.9456C100.012 52.2499 98.9228 52.2789 97.8799 52.0327C96.8371 51.7865 95.9398 51.2985 95.1882 50.5687C94.4468 49.8211 93.9278 48.8938 93.6312 47.7867C93.3346 46.6797 93.3223 45.6241 93.5943 44.6201C93.8803 43.6122 94.4133 42.741 95.1933 42.0063C95.9734 41.2716 96.9313 40.7521 98.0671 40.4477C99.2169 40.1396 100.313 40.1087 101.356 40.355C102.399 40.6012 103.289 41.0911 104.027 41.8246C104.778 42.5544 105.303 43.4729 105.599 44.5799C105.896 45.6869 105.903 46.7514 105.621 47.7732C105.349 48.7773 104.823 49.6467 104.043 50.3814C103.263 51.1161 102.298 51.6375 101.148 51.9456ZM100.545 49.6964C101.513 49.4372 102.226 48.9007 102.684 48.087C103.142 47.2734 103.231 46.341 102.949 45.29C102.667 44.239 102.125 43.4758 101.321 43.0003C100.517 42.5247 99.6317 42.4166 98.6641 42.6758C97.6966 42.9351 96.9837 43.4716 96.5254 44.2852C96.0811 45.0952 95.9998 46.0256 96.2814 47.0766C96.563 48.1276 97.0987 48.8927 97.8884 49.372C98.6921 49.8476 99.5778 49.9557 100.545 49.6964Z" fill="white"/>
<path d="M116.206 47.0998C115.965 47.4347 115.637 47.7253 115.222 47.9717C114.821 48.2143 114.375 48.4013 113.884 48.5328C112.65 48.8635 111.611 48.7967 110.765 48.3324C109.919 47.8682 109.331 47.0194 109 45.7863L107.553 40.3842L105.702 40.8802L105.139 38.7782L106.99 38.2822L106.303 35.7178L108.932 35.0133L109.619 37.5777L112.627 36.7718L113.19 38.8738L110.182 39.6797L111.613 45.0187C111.759 45.5653 112.005 45.95 112.35 46.1728C112.692 46.3817 113.115 46.4185 113.62 46.2833C114.209 46.1255 114.658 45.8398 114.968 45.4263L116.206 47.0998Z" fill="white"/>
<path d="M122.042 46.3471C121.13 46.5913 120.208 46.7108 119.275 46.7055C118.342 46.7002 117.567 46.5849 116.95 46.3596L117.425 44.0922C118.02 44.2933 118.696 44.405 119.453 44.4273C120.221 44.4319 120.948 44.3421 121.636 44.158C123.206 43.7372 123.881 43.1134 123.659 42.2866C123.554 41.8942 123.277 41.6754 122.829 41.6303C122.395 41.5813 121.718 41.6051 120.797 41.7017C119.834 41.8096 119.034 41.8513 118.396 41.8269C117.772 41.7988 117.183 41.6188 116.628 41.2868C116.083 40.9371 115.702 40.3559 115.484 39.5431C115.199 38.4781 115.414 37.5119 116.128 36.6446C116.853 35.7596 117.972 35.1141 119.487 34.7084C120.258 34.5017 121.054 34.3861 121.874 34.3617C122.69 34.3232 123.383 34.3853 123.953 34.5481L123.478 36.8155C122.374 36.5105 121.226 36.5176 120.035 36.837C119.263 37.0436 118.706 37.3206 118.364 37.6677C118.031 37.9972 117.915 38.351 118.017 38.7294C118.129 39.1498 118.42 39.3947 118.89 39.4642C119.37 39.5159 120.079 39.4985 121.018 39.4122C121.953 39.3119 122.732 39.2758 123.356 39.3039C123.979 39.332 124.553 39.5088 125.076 39.8343C125.613 40.1559 125.989 40.7162 126.203 41.5149C126.484 42.5659 126.254 43.5288 125.511 44.4036C124.769 45.2784 123.612 45.9263 122.042 46.3471Z" fill="white"/>
<path d="M135.945 41.8107C135.704 42.1455 135.376 42.4362 134.961 42.6825C134.56 42.9251 134.115 43.1122 133.624 43.2437C132.39 43.5743 131.35 43.5075 130.504 43.0432C129.658 42.579 129.07 41.7303 128.74 40.4971L127.292 35.095L125.441 35.591L124.878 33.489L126.729 32.9931L126.042 30.4286L128.671 29.7242L129.358 32.2886L132.366 31.4826L132.929 33.5846L129.922 34.3905L131.352 39.7296C131.499 40.2761 131.744 40.6608 132.09 40.8837C132.431 41.0925 132.854 41.1294 133.359 40.9941C133.948 40.8363 134.398 40.5506 134.708 40.1371L135.945 41.8107Z" fill="white"/>
<path d="M138.206 31.585C138.648 30.205 139.822 29.2595 141.729 28.7485L142.399 31.2499C142.164 31.2679 141.955 31.3014 141.773 31.3503C140.749 31.6245 140.03 32.14 139.617 32.8966C139.2 33.6392 139.141 34.571 139.442 35.6921L140.9 41.1362L138.271 41.8407L135.264 30.6161L137.767 29.9455L138.206 31.585Z" fill="white"/>
<path d="M148.189 27.0177C149.843 26.5743 151.212 26.6355 152.296 27.2013C153.39 27.7494 154.15 28.8221 154.578 30.4196L156.341 36.9988L153.859 37.6639L153.493 36.2976C153.302 36.8745 152.941 37.3768 152.409 37.8046C151.888 38.2147 151.207 38.5324 150.365 38.7578C149.524 38.9833 148.75 39.0404 148.044 38.9292C147.334 38.804 146.736 38.5361 146.251 38.1256C145.775 37.6973 145.451 37.1608 145.278 36.5162C145.008 35.5073 145.164 34.6019 145.745 33.8002C146.337 32.9808 147.44 32.355 149.052 31.9229L151.955 31.1451L151.91 30.977C151.7 30.1923 151.3 29.6536 150.71 29.3609C150.135 29.0645 149.385 29.0403 148.459 29.2883C147.828 29.4573 147.23 29.7226 146.666 30.0841C146.116 30.4419 145.677 30.8523 145.35 31.3153L143.807 29.6787C144.276 29.0725 144.892 28.5394 145.655 28.0795C146.419 27.6196 147.263 27.2657 148.189 27.0177ZM150.4 36.6985C151.059 36.5219 151.601 36.2188 152.027 35.7893C152.463 35.342 152.711 34.8099 152.772 34.193L152.422 32.8898L149.709 33.6168C148.195 34.0226 147.571 34.723 147.837 35.7179C147.965 36.1944 148.256 36.522 148.709 36.7008C149.163 36.8796 149.726 36.8789 150.4 36.6985Z" fill="white"/>
<path d="M162.9 23.0758C163.994 22.7827 165.032 22.7598 166.015 23.0071C167.012 23.2506 167.873 23.741 168.596 24.4783C169.32 25.2156 169.834 26.1518 170.138 27.2869C170.442 28.4219 170.467 29.4966 170.213 30.511C169.955 31.5113 169.455 32.3662 168.713 33.0756C167.985 33.7812 167.075 34.2806 165.981 34.5736C164.466 34.9794 163.132 34.7962 161.979 34.0239L163.437 39.4681L160.808 40.1725L156.708 24.8701L159.211 24.1995L159.605 25.6709C159.897 25.0219 160.323 24.4797 160.883 24.0444C161.456 23.6053 162.129 23.2824 162.9 23.0758ZM165.084 32.4034C166.051 32.1442 166.757 31.6096 167.201 30.7996C167.66 29.986 167.748 29.0536 167.466 28.0026C167.185 26.9516 166.642 26.1884 165.838 25.7129C165.049 25.2336 164.17 25.1235 163.203 25.3828C162.572 25.5519 162.043 25.8512 161.617 26.2807C161.187 26.6962 160.897 27.2097 160.745 27.8211C160.593 28.4325 160.611 29.0886 160.799 29.7892C160.987 30.4899 161.299 31.067 161.736 31.5206C162.173 31.9742 162.684 32.2805 163.267 32.4395C163.847 32.5845 164.453 32.5725 165.084 32.4034Z" fill="white"/>
</svg>
