<svg width="24" height="24" viewBox="0 0 24 24" fill="none" xmlns="http://www.w3.org/2000/svg">
<rect width="24" height="24" fill="url(#paint0_linear_901_302)"/>
<path fill-rule="evenodd" clip-rule="evenodd" d="M11.9259 15.3519C13.818 15.3519 15.3519 13.818 15.3519 11.9259C15.3519 10.0338 13.818 8.5 11.9259 8.5C10.0338 8.5 8.5 10.0338 8.5 11.9259C8.5 13.818 10.0338 15.3519 11.9259 15.3519ZM11.9259 16.8519C14.6464 16.8519 16.8519 14.6464 16.8519 11.9259C16.8519 9.20541 14.6464 7 11.9259 7C9.20541 7 7 9.20541 7 11.9259C7 14.6464 9.20541 16.8519 11.9259 16.8519Z" fill="#121212"/>
<circle cx="17.7785" cy="6.22211" r="1.40741" fill="#121212"/>
<defs>
<linearGradient id="paint0_linear_901_302" x1="0.868964" y1="-8.89284" x2="36.6979" y2="5.97339" gradientUnits="userSpaceOnUse">
<stop stop-color="#E9C600"/>
<stop offset="1" stop-color="#FF5001"/>
</linearGradient>
</defs>
</svg>
